<svg width="25" height="19" viewBox="0 0 25 19" fill="none" xmlns="http://www.w3.org/2000/svg">
<path fill-rule="evenodd" clip-rule="evenodd" d="M13.5189 5.0427C12.8084 3.21912 11.7183 1.76684 10.3194 0.889241C8.30733 -0.373128 5.87353 -0.308305 3.56834 1.19172C2.55174 1.85324 1.60895 2.57305 0.951054 3.46125C0.259406 4.39501 -0.0925027 5.48084 0.0209912 6.77438C0.129773 8.01421 0.659412 9.37159 1.56441 10.9165C2.47481 12.4706 3.81281 14.2937 5.63285 16.4783C6.04499 16.973 6.77786 17.038 7.26976 16.6236C7.76167 16.2091 7.82633 15.4721 7.4142 14.9774C5.63213 12.8384 4.38475 11.1267 3.56672 9.73023C2.74329 8.32456 2.40145 7.31565 2.33594 6.56896C2.27513 5.87598 2.44611 5.35506 2.81476 4.85736C3.21716 4.3141 3.87208 3.77773 4.83083 3.15386C6.47633 2.0831 7.93513 2.14794 9.08938 2.87209C10.3136 3.64015 11.4066 5.28692 11.8902 7.77246L11.9757 8.21187C12.1543 9.13 13.3832 9.32223 13.8337 8.5025L14.0476 8.11329C15.0519 6.28562 17.3157 4.95787 19.5031 4.40114C20.5831 4.12626 21.5217 4.07314 22.1486 4.18095C22.4705 4.23631 22.6155 4.30816 22.6758 4.35271C22.6529 7.23165 20.8707 9.61483 18.2138 11.6945C15.8345 13.5569 12.9526 15.0229 10.4804 16.2804C10.1385 16.4543 9.80442 16.6243 9.48061 16.7907C8.90918 17.0844 8.68271 17.7884 8.97477 18.363C9.26684 18.9377 9.96683 19.1654 10.5383 18.8717C10.8493 18.7119 11.1757 18.546 11.5145 18.3739C13.9682 17.1274 17.0692 15.552 19.6413 13.5387C22.5666 11.2489 25.0659 8.194 24.9987 4.13985L24.9975 4.0666L24.9872 3.99407C24.7879 2.59115 23.5164 2.04516 22.5403 1.87731C21.4897 1.69664 20.206 1.8115 18.9329 2.1355C17.1129 2.59873 15.0597 3.55942 13.5189 5.0427ZM22.7138 4.3941C22.7121 4.39492 22.7053 4.38827 22.6985 4.37171C22.7121 4.385 22.7155 4.39328 22.7138 4.3941Z" fill="#2B3140"/>
</svg>
