<svg width="72" height="23" viewBox="0 0 72 23" fill="none" xmlns="http://www.w3.org/2000/svg">
<path fill-rule="evenodd" clip-rule="evenodd" d="M41.3342 15.4632L42.1047 7.15293L39.6812 6.92853L39.8831 4.75186L44.8348 5.20814L43.8699 15.6202C43.7503 16.8993 43.3837 17.8119 42.7554 18.3579C42.1346 18.9039 41.2594 19.1283 40.13 19.0236C38.7462 18.8965 37.7364 18.2382 37.0931 17.0414L39.1127 16.1214C39.3146 16.5478 39.6886 16.7871 40.2272 16.832C40.5264 16.8619 40.7657 16.7721 40.9602 16.5777C41.1547 16.3832 41.2744 16.0092 41.3267 15.4482L41.3342 15.4632ZM45.2986 1.7898C45.2537 2.25356 45.0667 2.62008 44.7301 2.90432C44.3935 3.18855 43.9672 3.30075 43.4436 3.25587C42.9275 3.21099 42.531 3.01652 42.2543 2.67992C41.9775 2.34332 41.8653 1.94688 41.9102 1.48312C41.9551 1.01937 42.1421 0.64537 42.4712 0.361132C42.8003 0.0768935 43.2267 -0.0353058 43.7428 0.0095739C44.2664 0.0544536 44.6628 0.248932 44.947 0.58553C45.2238 0.922128 45.3435 1.32605 45.2986 1.7898ZM34.4452 15.4033L36.9884 15.351L36.9958 15.3285L36.8313 7.87848C36.8088 6.72657 36.4573 5.86638 35.7841 5.29042C35.1109 4.71446 34.1983 4.44519 33.039 4.46763C31.5729 4.49755 30.406 5.15578 29.5383 6.44233L31.4008 7.89344C31.7524 7.08561 32.3134 6.66673 33.0764 6.65177C33.8617 6.63681 34.2657 6.99585 34.2806 7.72889L34.3031 8.88828L33.4204 8.91072C32.1189 8.94064 31.1316 9.27724 30.4658 9.92799C29.8001 10.5787 29.4785 11.4389 29.5009 12.5161C29.5159 13.4286 29.8076 14.1766 30.3611 14.7675C30.9221 15.3584 31.5729 15.6427 32.3284 15.6277C33.2484 15.6128 33.9515 15.1191 34.4153 14.1691L34.4452 15.4033ZM34.333 10.5264L34.3704 12.1421L34.3779 12.1495C34.3105 12.9948 33.9066 13.4211 33.1512 13.4361C32.4256 13.451 32.0591 13.0172 32.0366 12.1421C32.0217 11.6559 32.1339 11.2744 32.3658 10.9901C32.5976 10.7059 32.9567 10.5563 33.4504 10.5488L34.333 10.5264ZM27.8927 12.6432C28.0274 13.5483 27.8254 14.3486 27.2869 15.0293C26.7483 15.71 25.8507 16.1513 24.5866 16.3383C22.9934 16.5777 21.6096 16.0391 20.4502 14.7301L22.006 13.294C22.6194 14.0868 23.3524 14.416 24.2051 14.2963C25.0878 14.1691 25.4767 13.7353 25.3645 13.0023C25.3047 12.5983 25.013 12.3216 24.4819 12.157L22.7615 11.611C21.2655 11.1173 20.4278 10.2496 20.2482 9.00796C20.0986 8.01312 20.3006 7.18285 20.8392 6.52461C21.3777 5.86638 22.1855 5.45498 23.2627 5.29042C24.6614 5.08098 25.8956 5.57466 26.9727 6.74901L25.3944 8.2076C24.9008 7.53441 24.3248 7.24269 23.6666 7.33993C23.3524 7.38481 23.1056 7.51197 22.9335 7.71393C22.7615 7.91588 22.7017 8.16272 22.7465 8.4694C22.8139 8.93316 23.143 9.2548 23.7264 9.4418L25.1775 9.90555C26.8007 10.4217 27.7057 11.3342 27.9002 12.6507L27.8927 12.6432ZM18.296 16.4356C18.7672 15.5828 18.7896 14.3636 18.3558 12.7853H18.3633L17.8247 10.8256C17.3834 9.23984 16.7401 8.20012 15.8949 7.71393C15.0422 7.22025 14.0922 7.12301 13.0376 7.41473C11.9829 7.70645 11.2125 8.2824 10.7337 9.13512C10.2475 9.99531 10.2326 11.2145 10.6664 12.8003L11.205 14.76C11.6388 16.3383 12.2821 17.3705 13.1348 17.8567C13.9875 18.3429 14.9375 18.4402 15.9921 18.1485C17.0543 17.8567 17.8247 17.2883 18.296 16.4356ZM15.3713 11.5287L15.9099 13.4885H15.9173C16.1567 14.3786 16.239 14.9994 16.1417 15.351C16.052 15.7025 15.8051 15.9344 15.4162 16.0391C15.0272 16.1438 14.6981 16.0765 14.4363 15.8222C14.1745 15.5754 13.9202 14.9994 13.6734 14.1093L13.1348 12.1495C12.873 11.2071 12.7907 10.5638 12.888 10.2122C12.9852 9.86067 13.232 9.62879 13.621 9.52407C14.01 9.41187 14.3316 9.48667 14.5934 9.74099C14.8552 9.99531 15.1095 10.5862 15.3713 11.5287ZM10.979 19.4313L10.9881 19.4275L10.9806 19.435L10.979 19.4313ZM8.34015 13.0845L10.979 19.4313L8.63935 20.4074L5.99144 14.0494C5.7072 13.3688 5.43045 12.9574 5.15369 12.8078C4.87693 12.6582 4.56277 12.6582 4.21869 12.8003C3.63526 13.0471 3.44078 13.5932 3.63526 14.4534L6.48512 21.305L4.13641 22.2849L0 12.359L2.34871 11.3791L2.81994 12.5161C2.97702 11.4464 3.47818 10.7283 4.31593 10.3843C5.04897 10.0776 5.75956 10.1075 6.44772 10.4665C7.13588 10.8256 7.76419 11.7007 8.34015 13.0845ZM50.4822 16.6973C50.9534 16.4056 51.2526 15.9344 51.3873 15.2687V15.2836C51.5144 14.6329 51.4097 14.0868 51.0881 13.6306C50.7664 13.1743 50.3027 12.8901 49.6968 12.7704C49.0835 12.6507 48.5449 12.733 48.0811 13.0247C47.6099 13.3089 47.3107 13.7876 47.1835 14.4459C47.0564 15.1041 47.1536 15.6651 47.4753 16.1064C47.8044 16.5478 48.2681 16.832 48.8665 16.9517C49.4724 17.0713 50.011 16.9891 50.4822 16.6973ZM59.4731 19.6519L53.362 17.7296L54.0202 15.6427L55.8678 16.2261L57.7826 10.1374L56.1969 9.63627L56.8551 7.54937L60.8644 8.81348L58.2913 16.9816L60.1313 17.5575L59.4731 19.6445V19.6519ZM62.0313 5.5597C61.8891 6.00102 61.6273 6.32265 61.2384 6.52461C60.8494 6.72657 60.4081 6.74901 59.9144 6.59193C59.4207 6.43485 59.0692 6.16558 58.8747 5.77662C58.6728 5.38766 58.6428 4.97626 58.785 4.53495C58.9271 4.08615 59.1889 3.76451 59.5778 3.56255C59.9668 3.36059 60.4006 3.33815 60.9018 3.48775C61.4029 3.63735 61.747 3.91411 61.949 4.30307C62.1509 4.69202 62.1809 5.1109 62.0387 5.5597H62.0313ZM67.1326 22.038C68.0451 21.6865 68.838 20.7664 69.5112 19.2705H69.5187L70.3564 17.4229C71.0371 15.9194 71.2017 14.7152 70.8651 13.7951C70.5285 12.8751 69.8553 12.1869 68.8605 11.7381C67.8581 11.2893 66.9007 11.237 65.9882 11.5885C65.0681 11.9401 64.2752 12.8676 63.5946 14.3636L62.7568 16.2186C62.0761 17.7071 61.9116 18.9189 62.2557 19.8314C62.5997 20.744 63.2729 21.4247 64.2678 21.881C65.2626 22.3372 66.22 22.3896 67.1326 22.038ZM68.0152 16.3907L67.1775 18.2457L67.17 18.2382C66.7885 19.0835 66.4519 19.6071 66.1527 19.8165C65.861 20.0259 65.5244 20.0484 65.1579 19.8838C64.7914 19.7193 64.5894 19.4575 64.5445 19.0909C64.4996 18.7244 64.6717 18.126 65.0532 17.2808L65.8909 15.4258C66.2948 14.5356 66.6464 13.9896 66.9456 13.7802C67.2448 13.5707 67.5814 13.5558 67.9479 13.7203C68.3219 13.8849 68.5239 14.1542 68.5613 14.5132C68.5987 14.8797 68.4191 15.5006 68.0152 16.3907Z" fill="#171A22"/>
</svg>
