<svg width="51" height="22" viewBox="0 0 51 22" fill="none" xmlns="http://www.w3.org/2000/svg">
<path fill-rule="evenodd" clip-rule="evenodd" d="M47.6142 19.3458H45.5332V22H46.8852C48.897 22 50.3828 20.7167 50.3828 18.6118V5.29459H47.6142V19.3458ZM50.3874 0H47.5958V3.05581H50.3874V0ZM34.9943 12.2094V10.0352C34.9943 7.02097 36.7016 5.09147 39.6685 5.09147C40.8221 5.09147 41.7265 5.37767 42.4371 5.91312V5.29458H45.2056V16.9501H42.4371V16.3315C41.7265 16.8623 40.8221 17.1532 39.6685 17.1532C36.7016 17.1532 34.9943 15.2237 34.9943 12.2094ZM40.1115 14.4897C41.6388 14.4897 42.4371 13.825 42.4371 12.2094V10.0352C42.4371 8.6412 41.6388 7.75492 40.1115 7.75492C38.5842 7.75492 37.7629 8.6412 37.7629 10.0352V12.2094C37.7629 13.825 38.5842 14.4897 40.1115 14.4897ZM0 5.29458H2.76854V5.89467C3.25765 5.51615 4.07436 5.09609 5.49093 5.09609C7.99184 5.09609 9.92059 6.60092 9.92059 9.19513V16.9501H7.15205V9.77213C7.15205 8.75199 6.59835 7.75493 4.93722 7.75493C3.60833 7.75493 2.76854 8.59505 2.76854 9.77213V16.9501H0V5.29458ZM16.8096 5.09609C19.7766 5.09609 21.9037 7.02559 21.9037 10.0399V12.214C21.9037 15.2283 19.7766 17.1578 16.8096 17.1578C13.8427 17.1578 11.6924 15.2283 11.6924 12.214V10.0399C11.6924 7.02559 13.8427 5.09609 16.8096 5.09609ZM16.8096 14.4897C18.3369 14.4897 19.1352 13.825 19.1352 12.2094V10.0352C19.1352 8.6412 18.3369 7.75493 16.8096 7.75493C15.2823 7.75493 14.461 8.6412 14.461 10.0352V12.2094C14.461 13.825 15.2823 14.4897 16.8096 14.4897ZM26.2227 13.008H23.4541L23.4495 13.0126C23.4956 15.7176 25.6459 17.1578 28.3913 17.1578C31.6444 17.1578 33.4393 15.2929 33.4393 13.345C33.4393 11.9048 32.6872 10.2661 30.2509 9.93372L27.8146 9.60137C27.127 9.51366 26.8179 9.13515 26.8179 8.69201C26.8179 8.13808 27.4639 7.64878 28.5252 7.64878C29.5864 7.64878 30.3847 8.20271 30.4078 8.9782H33.1763C33.1763 6.82713 31.3122 5.10074 28.5252 5.10074C25.7382 5.10074 23.9202 6.78559 23.9202 8.75663C23.9202 10.8385 25.3413 11.9694 27.0671 12.191L29.3696 12.5002C30.2786 12.6341 30.5 13.0311 30.5 13.4742C30.5 13.982 29.8817 14.5359 28.396 14.5359C26.8225 14.5359 26.2457 13.7604 26.2227 13.008Z" fill="#2B3140"/>
</svg>
