<svg width="639" height="19" viewBox="0 0 639 19" fill="none" xmlns="http://www.w3.org/2000/svg">
<path fill-rule="evenodd" clip-rule="evenodd" d="M0 3.24377V1.73386L94.0302 0H175.915L0 3.24377ZM0 5.03042V3.50511L310.338 0H445.386L0 5.03042ZM0 6.83332V5.29146L639 2.73826V4.28009L0 6.83332ZM0 8.64952V7.0899L639 9.30674V10.8664L0 8.64952ZM0 10.4813V8.90259L639 16.0073V17.5861L0 10.4813ZM0 12.3311V10.7319L436.202 19H351.831L0 12.3311ZM0 14.201V12.8427L0.450956 12.5921L237.904 19H177.832L0 14.201ZM0 16.0892V15.0108L0.995639 14.4797L129.246 19H82.5865L0 16.0892ZM0 18.0023V17.1227L1.41969 16.3948L60.9982 19H22.817L0 18.0023ZM14.4384 19H0.380545L1.73102 18.3335L14.4384 19ZM57.6378 0L0 1.46581V0H57.6378Z" fill="#E4AA15" fill-opacity="0.2"/>
</svg>
