<svg width="638" height="19" viewBox="0 0 638 19" fill="none" xmlns="http://www.w3.org/2000/svg">
<path fill-rule="evenodd" clip-rule="evenodd" d="M638 3.24377V1.73386L543.97 0H462.085L638 3.24377ZM638 5.03042V3.50511L327.662 0H192.614L638 5.03042ZM638 6.83332V5.29146L-1 2.73826V4.28009L638 6.83332ZM638 8.64952V7.0899L-1 9.30674V10.8664L638 8.64952ZM638 10.4813V8.90259L-1 16.0073V17.5861L638 10.4813ZM638 12.3311V10.7319L201.798 19H286.169L638 12.3311ZM638 14.201V12.8427L637.549 12.5921L400.096 19H460.168L638 14.201ZM638 16.0892V15.0108L637.004 14.4797L508.754 19H555.413L638 16.0892ZM638 18.0023V17.1227L636.58 16.3948L577.002 19H615.183L638 18.0023ZM623.562 19H637.619L636.269 18.3335L623.562 19ZM580.362 0L638 1.46581V0H580.362Z" fill="#E4AA15" fill-opacity="0.2"/>
</svg>
