<svg width="52" height="22" viewBox="0 0 52 22" fill="none" xmlns="http://www.w3.org/2000/svg">
<path fill-rule="evenodd" clip-rule="evenodd" d="M23.6345 2.45592C23.6519 2.69401 24.0788 2.75787 25.0941 2.82082C32.0008 3.24775 29.565 6.70699 29.4574 6.8493C28.1465 8.64916 23.1 8.74769 20.3012 7.03175C20.7354 6.49443 21.3147 5.77832 21.7516 5.24283C23.7723 6.43788 26.9916 6.41051 26.8238 5.69257C26.7672 5.44444 26.4023 5.34682 25.2164 5.26198C22.4121 5.06038 20.6624 4.59148 20.6013 2.87098C20.553 1.49896 21.904 0.0795057 25.0303 0.000140046C27.3948 -0.0108069 28.7185 0.622288 29.5076 1.10031C29.1845 1.48843 28.7781 1.9834 28.4176 2.42258L28.4175 2.42267L28.1182 2.78705C26.1514 1.65039 23.6053 2.05635 23.6345 2.45592ZM14.7501 0.757308C11.0181 1.25266 9.95264 3.96934 10.1743 6.14505C10.6304 10.6342 17.1986 9.37988 19.0532 6.90951C20.4198 5.08775 20.5913 0.18989 14.7501 0.757308ZM14.8213 6.65044C13.681 6.80187 12.9722 6.33388 12.8773 5.36781C12.6638 3.20122 15.1871 2.60552 16.2453 3.40739C17.0198 3.99397 17.3437 6.23628 14.8213 6.65044ZM6.93772 2.57266L6.98242 6.2919C5.83298 4.96367 5.3723 4.34973 4.61057 3.33349C3.55236 3.744 3.43103 3.80694 2.27521 4.40993C0.207139 5.66792 0.102236 6.426 0.000976562 7.15945L0.0922014 14.8853C0.177041 13.5406 1.28998 12.8254 2.36643 12.1349C3.04423 11.7499 3.09623 11.7271 4.53028 11.1241L4.47921 6.91953C5.59945 8.39646 5.94792 8.80606 7.22598 10.2429C7.801 10.0876 8.54763 9.90571 9.15748 9.75714L9.35426 9.70918L9.26304 1.98427C8.56243 2.14847 7.63376 2.3893 6.93772 2.57266ZM30.0377 7.22788L30.0373 7.22877L29.6571 8.00034C30.6122 8.02953 31.8857 8.08519 32.8399 8.12989L33.3563 6.94396C34.3689 7.01603 35.7172 7.12641 36.7316 7.22402L37.2525 8.49205C38.2614 8.60334 39.2439 8.73288 40.2 8.88066C38.7331 5.41412 37.6603 3.03498 36.6011 0.707832C35.5457 0.602924 34.4683 0.513521 33.3754 0.443278C32.3637 2.50706 31.9006 3.44691 30.0377 7.22788ZM34.1509 5.12767L35.012 3.14353C35.2288 3.64939 35.4977 4.2892 35.7339 4.85118L35.9115 5.27363C35.3313 5.21889 34.7444 5.17024 34.1509 5.12767ZM43.8498 1.87107C46.0283 2.41842 51.8129 3.87253 51.9041 6.53904L51.9962 14.264C51.7791 12.9257 50.6671 11.186 43.942 9.59598L43.0617 9.40259C41.1332 9.01123 40.3231 7.97401 39.7867 7.28709C40.2921 6.84191 40.9653 6.24712 41.4689 5.7992C42.5271 7.30441 43.5643 7.19404 43.9055 6.53539L43.8498 1.87107Z" fill="url(#paint0_linear_43_957)"/>
<path d="M16.6458 12.85C10.1542 12.4705 11.7425 17.986 12.8837 19.327C15.1242 21.9725 21.4442 21.9816 21.8374 17.7506C22.0919 15.0221 20.1041 13.1429 16.6458 12.8455V12.85ZM43.101 16.0383C42.6276 16.6769 41.9926 17.5235 41.5091 18.1529C42.9104 19.5396 43.922 19.3717 47.3037 18.1155C51.7336 16.4735 51.9206 14.9227 52 14.2576L51.9088 6.53271C51.7263 7.83541 50.9491 8.86716 47.4944 10.283L47.4835 10.3213V10.2875C46.8753 10.5235 46.2039 10.7522 45.4692 10.9735L45.513 14.6225C45.4528 17.1933 43.7642 16.7107 43.2597 16.2108C43.2105 16.1606 43.1494 16.0894 43.1019 16.0383H43.101ZM38.4495 12.487C37.5135 12.6156 36.2601 12.7807 35.3241 12.8911C34.514 14.7238 33.5069 17.0044 31.6751 20.9453C32.6138 20.8723 33.8645 20.7702 34.8014 20.6817L35.3049 19.4127C36.4224 19.2914 37.5153 19.1509 38.5754 18.9895L39.078 20.128C39.9237 19.982 41.0521 19.7813 41.8941 19.6144C41.105 17.9395 40.211 16.0411 38.4467 12.487H38.4495ZM0 7.15305L0.0912249 14.8789C0.239921 15.7984 0.597523 16.7298 3.2841 17.9988C4.65247 18.5625 4.7373 18.5963 5.76175 18.911L5.7116 14.7055C6.96138 16.9451 7.30072 17.5025 8.73387 19.6746C9.41349 19.8096 10.3194 19.9911 11.0026 20.1106L10.9114 12.3857C10.1661 12.247 9.17174 12.0609 8.43008 11.9031L8.47478 15.6224C7.50962 14.1071 6.92397 13.1921 5.86302 11.2436C4.25017 10.719 4.1188 10.6761 3.19287 10.2702C1.89839 9.62523 0.124066 8.74127 0 7.1494V7.15305ZM36.0794 17.4569C36.3312 16.8092 36.666 15.9462 36.915 15.2976C37.1778 15.8787 37.5272 16.6541 37.7881 17.2361C37.2261 17.3158 36.6566 17.3894 36.0794 17.4569ZM16.7188 18.7432C14.232 18.4421 14.4637 16.1259 15.2044 15.5393C16.1167 14.8187 18.9219 15.1462 18.744 17.3301C18.6655 18.3025 17.8892 18.8435 16.7188 18.7432V18.7432ZM27.0819 13.1629C21.7909 13.3919 22.3236 16.3485 23.214 17.2151C24.2558 18.2287 26.447 18.371 27.5016 18.4385C29.9117 18.5954 28.6875 19.2978 27.5353 19.3224C26.5756 19.3425 25.1461 19.182 23.7896 18.3025C23.3499 18.8052 22.7633 19.4748 22.3227 19.9756C25.9079 22.467 32.414 21.6915 31.874 18.038C31.6267 16.3722 29.6791 16.1268 27.3501 15.9936C24.6508 15.8386 25.7801 15.2784 26.8621 15.2237C28.7705 15.1325 29.742 15.6351 30.1571 15.8522C30.5695 15.3149 31.1205 14.5979 31.531 14.0588C30.0093 13.2615 28.2724 13.131 27.0828 13.1629" fill="url(#paint1_linear_43_957)"/>
<defs>
<linearGradient id="paint0_linear_43_957" x1="-0.000247076" y1="0" x2="51.9995" y2="0" gradientUnits="userSpaceOnUse">
<stop stop-color="#35384D"/>
<stop offset="0.5" stop-color="#35384D"/>
<stop offset="1" stop-color="#111219"/>
</linearGradient>
<linearGradient id="paint1_linear_43_957" x1="0" y1="6.53271" x2="51.9998" y2="6.53271" gradientUnits="userSpaceOnUse">
<stop stop-color="white"/>
<stop offset="0.468116" stop-color="white"/>
<stop offset="1" stop-color="#3C3E51"/>
</linearGradient>
</defs>
</svg>
