<svg width="103" height="30" viewBox="0 0 103 30" fill="none" xmlns="http://www.w3.org/2000/svg">
<g clip-path="url(#clip0_50_1234)">
<path d="M102.057 0.519449V29.5194H72.9144V0.519449H102.057ZM65.6287 0.519409V29.5194H36.4858V0.519409H65.6287ZM29.2001 0.519409V29.5194H0.0572662V0.519409H29.2001ZM88.824 6.6894C87.5126 6.6894 86.3287 6.88334 85.2722 7.27081C84.2155 7.65869 83.3091 8.21774 82.5535 8.94798C81.7974 9.67862 81.2191 10.5546 80.8181 11.5756C80.4168 12.5969 80.2163 13.7412 80.2163 15.0082C80.2163 16.3052 80.4093 17.472 80.7949 18.5079C81.1803 19.5443 81.7357 20.4199 82.4609 21.1355C83.1858 21.8511 84.0727 22.399 85.1218 22.7792C86.1706 23.1593 87.3507 23.3494 88.662 23.3494C89.649 23.3494 90.5901 23.2411 91.485 23.0251C92.3794 22.8092 93.1661 22.5146 93.845 22.1419V19.0334C92.4104 19.9133 90.8446 20.3528 89.148 20.3528C88.0372 20.3528 87.0923 20.1442 86.3134 19.7267C85.5344 19.3094 84.9404 18.7018 84.5319 17.9041C84.1229 17.1067 83.9187 16.1414 83.9187 15.0082C83.9187 13.8755 84.1305 12.9138 84.5548 12.1235C84.979 11.3334 85.5882 10.7297 86.3829 10.3122C87.1771 9.89491 88.1375 9.68597 89.2636 9.68597C90.0811 9.68597 90.8602 9.79421 91.6005 10.0102C92.341 10.2265 93.0272 10.5434 93.66 10.9606V7.78516C92.9658 7.42739 92.2137 7.15552 91.4039 6.96893C90.5941 6.78275 89.734 6.6894 88.824 6.6894ZM50.8344 6.86316H44.6823V23.1757H51.2133C52.5061 23.1757 53.613 22.9857 54.5345 22.6053C55.4558 22.2253 56.1653 21.6852 56.6632 20.9855C57.1609 20.286 57.4099 19.4494 57.4099 18.4759C57.4099 17.4873 57.1537 16.647 56.6411 15.9548C56.1282 15.2629 55.3889 14.757 54.4231 14.4376C55.1214 14.1033 55.6491 13.6505 56.0057 13.0801C56.3624 12.5098 56.5407 11.8368 56.5407 11.061C56.5407 9.70748 56.0427 8.66942 55.0473 7.94683C54.0515 7.22465 52.6472 6.86316 50.8344 6.86316ZM14.4058 6.86316H8.2537V23.1757H14.7847C16.0775 23.1757 17.1844 22.9857 18.106 22.6053C19.0271 22.2253 19.7367 21.6852 20.2347 20.9855C20.7324 20.286 20.9814 19.4494 20.9814 18.4759C20.9814 17.4873 20.7251 16.647 20.2124 15.9548C19.6998 15.2629 18.9604 14.757 17.9945 14.4376C18.6928 14.1033 19.2204 13.6505 19.5771 13.0801C19.9338 12.5098 20.1121 11.8368 20.1121 11.061C20.1121 9.70748 19.614 8.66942 18.6186 7.94683C17.6229 7.22465 16.2186 6.86316 14.4058 6.86316ZM50.9458 16.1259C52.9814 16.1259 53.9996 16.8713 53.9996 18.3618C53.9996 19.0615 53.732 19.5976 53.1972 19.9702C52.6622 20.3431 51.8967 20.5292 50.9013 20.5292H48.0036V16.1259H50.9458ZM14.5172 16.1259C16.5529 16.1259 17.571 16.8713 17.571 18.3618C17.571 19.0615 17.3035 19.5976 16.7686 19.9702C16.2336 20.3431 15.4681 20.5292 14.4727 20.5292H11.575V16.1259H14.5172ZM50.5223 9.50966C52.2905 9.50966 53.1749 10.1563 53.1749 11.4488C53.1749 12.1184 52.9482 12.6391 52.495 13.0117C52.0416 13.3846 51.384 13.5707 50.5223 13.5707H48.0035V9.50966H50.5223ZM14.0937 9.50966C15.8619 9.50966 16.7463 10.1563 16.7463 11.4488C16.7463 12.1184 16.5195 12.6391 16.0664 13.0117C15.613 13.3846 14.9554 13.5707 14.0937 13.5707H11.575V9.50966H14.0937Z" fill="#ffffff"/>
</g>
<defs>
<clipPath id="clip0_50_1234">
<rect width="102" height="29" fill="white" transform="translate(0.0572662 0.519409)"/>
</clipPath>
</defs>
</svg>
