<svg width="107" height="31" viewBox="0 0 107 31" fill="none" xmlns="http://www.w3.org/2000/svg">
<g clip-path="url(#clip0_50_1234)">
<path d="M106.441 0.591839V30.5918H76.1734V0.591839H106.441ZM68.6065 0.591797V30.5918H38.3386V0.591797H68.6065ZM30.7716 0.591797V30.5918H0.503784V0.591797H30.7716ZM92.6971 6.97455C91.3352 6.97455 90.1056 7.17517 89.0082 7.57601C87.9107 7.97726 86.9694 8.55559 86.1846 9.31101C85.3993 10.0668 84.7987 10.973 84.3822 12.0292C83.9654 13.0858 83.7572 14.2695 83.7572 15.5802C83.7572 16.9219 83.9576 18.1289 84.3581 19.2006C84.7585 20.2727 85.3352 21.1785 86.0884 21.9188C86.8414 22.659 87.7624 23.2259 88.8521 23.6191C89.9414 24.0124 91.167 24.209 92.5289 24.209C93.554 24.209 94.5315 24.0969 95.4609 23.8735C96.3898 23.6502 97.2068 23.3455 97.912 22.9599V19.7442C96.422 20.6544 94.7958 21.1091 93.0337 21.1091C91.88 21.1091 90.8986 20.8933 90.0897 20.4614C89.2806 20.0298 88.6636 19.4012 88.2394 18.576C87.8146 17.7511 87.6025 16.7525 87.6025 15.5802C87.6025 14.4084 87.8224 13.4136 88.2632 12.596C88.7038 11.7787 89.3365 11.1541 90.1618 10.7223C90.9867 10.2906 91.9842 10.0744 93.1538 10.0744C94.0028 10.0744 94.812 10.1864 95.5809 10.4099C96.35 10.6336 97.0627 10.9614 97.7198 11.393V8.10809C96.9989 7.73799 96.2178 7.45674 95.3767 7.26371C94.5356 7.07111 93.6423 6.97455 92.6971 6.97455ZM53.241 7.1543H46.8515V24.0293H53.6346C54.9773 24.0293 56.127 23.8327 57.084 23.4393C58.0409 23.0462 58.7777 22.4874 59.2949 21.7636C59.8118 21.04 60.0704 20.1745 60.0704 19.1674C60.0704 18.1448 59.8043 17.2755 59.2719 16.5594C58.7393 15.8437 57.9714 15.3203 56.9683 14.9899C57.6935 14.6441 58.2416 14.1757 58.612 13.5857C58.9825 12.9957 59.1676 12.2994 59.1676 11.4969C59.1676 10.0967 58.6505 9.02284 57.6166 8.27534C56.5824 7.52826 55.1238 7.1543 53.241 7.1543ZM15.4062 7.1543H9.01662V24.0293H15.7998C17.1425 24.0293 18.292 23.8327 19.2493 23.4393C20.206 23.0462 20.9429 22.4874 21.4601 21.7636C21.977 21.04 22.2357 20.1745 22.2357 19.1674C22.2357 18.1448 21.9695 17.2755 21.437 16.5594C20.9045 15.8437 20.1366 15.3203 19.1334 14.9899C19.8587 14.6441 20.4067 14.1757 20.7772 13.5857C21.1476 12.9957 21.3328 12.2994 21.3328 11.4969C21.3328 10.0967 20.8155 9.02284 19.7817 8.27534C18.7475 7.52826 17.289 7.1543 15.4062 7.1543ZM53.3567 16.7364C55.471 16.7364 56.5285 17.5076 56.5285 19.0494C56.5285 19.7733 56.2505 20.3279 55.695 20.7133C55.1394 21.099 54.3443 21.2915 53.3105 21.2915H50.3009V16.7364H53.3567ZM15.5219 16.7364C17.6362 16.7364 18.6936 17.5076 18.6936 19.0494C18.6936 19.7733 18.4157 20.3279 17.8602 20.7133C17.3046 21.099 16.5095 21.2915 15.4757 21.2915H12.4661V16.7364H15.5219ZM52.9169 9.89206C54.7534 9.89206 55.6719 10.561 55.6719 11.8981C55.6719 12.5907 55.4365 13.1295 54.9658 13.5149C54.4948 13.9006 53.8119 14.0931 52.9169 14.0931H50.3009V9.89206H52.9169ZM15.0821 9.89206C16.9185 9.89206 17.8371 10.561 17.8371 11.8981C17.8371 12.5907 17.6016 13.1295 17.1309 13.5149C16.66 13.9006 15.9771 14.0931 15.0821 14.0931H12.4661V9.89206H15.0821Z" fill="white"/>
</g>
<defs>
<clipPath id="clip0_50_1234">
<rect width="105.938" height="30" fill="white" transform="translate(0.503784 0.591797)"/>
</clipPath>
</defs>
</svg>
