<svg width="139" height="29" viewBox="0 0 139 29" fill="none" xmlns="http://www.w3.org/2000/svg">
<path fill-rule="evenodd" clip-rule="evenodd" d="M2.42836 6.75672C2.42836 4.50915 3.03857 2.8307 4.24516 1.76722C5.16133 0.941586 6.34372 0.521973 7.75428 0.521973C7.94789 0.521973 8.14668 0.528768 8.3472 0.544058C8.69984 0.571239 8.97642 0.866837 8.97642 1.2185V2.74236C8.97642 3.1144 8.67218 3.4168 8.29707 3.4151H8.15359C7.35151 3.4151 6.78106 3.60027 6.35754 3.9944C5.64535 4.63996 5.5399 6.00243 5.5399 6.75672V6.98606H12.6774C13.0577 6.98606 13.3654 7.28845 13.3654 7.6605V21.5383C13.3654 21.9104 13.056 22.2128 12.6774 22.2128H10.9401C10.5616 22.2128 10.2522 21.9104 10.2522 21.5383V9.95733H5.54163V27.9854C5.54163 28.3575 5.23393 28.6616 4.85536 28.6616H3.11636C2.73779 28.6616 2.43009 28.3575 2.43009 27.9854V9.95733H1.09559C0.715289 9.95733 0.407593 9.65494 0.407593 9.28289V7.6605C0.407593 7.28845 0.715289 6.98606 1.09559 6.98606H2.42836V6.75672ZM115.358 4.51253C115.358 4.14048 115.666 3.83809 116.043 3.83809H117.773C118.152 3.83809 118.458 4.14048 118.458 4.51253V6.95376H121.135C121.512 6.95376 121.82 7.25615 121.82 7.6282V9.24719C121.82 9.61924 121.512 9.92163 121.135 9.92163H118.458V16.5539C118.458 18.4311 119.339 19.3434 121.156 19.3434H121.192C121.571 19.3434 121.877 19.6441 121.877 20.0161V21.5689C121.877 21.9205 121.6 22.2161 121.249 22.2416C121.063 22.2552 120.878 22.262 120.696 22.262C117.453 22.262 115.358 20.0212 115.358 16.5522V9.92163H114.031C113.654 9.92163 113.346 9.61924 113.346 9.24719V7.6282C113.346 7.25615 113.654 6.95376 114.031 6.95376H115.358V4.51253ZM56.8924 6.58527C58.8464 6.58527 60.4326 7.35062 61.4802 8.7999C62.5451 7.37097 64.1917 6.58527 66.1112 6.58527C69.7188 6.58527 71.9592 8.98403 71.9592 12.8421V21.5385C71.9592 21.9105 71.6515 22.2129 71.2729 22.2129H69.5097C69.1311 22.2129 68.8234 21.9105 68.8234 21.5385V12.7843C68.8234 11.2707 68.2979 9.4682 65.7949 9.4682C63.9729 9.4682 62.6505 10.9343 62.6505 12.9542V21.5385C62.6505 21.9105 62.3428 22.2129 61.9642 22.2129H60.2304C59.8518 22.2129 59.5441 21.9105 59.5441 21.5385V12.7843C59.5441 10.6455 58.4793 9.4682 56.5449 9.4682C54.7368 9.4682 53.3729 10.9666 53.3729 12.9542V21.5385C53.3729 21.9105 53.0652 22.2129 52.6866 22.2129H50.9234C50.5449 22.2129 50.2372 21.9105 50.2372 21.5385V7.62666C50.2372 7.25461 50.5449 6.95222 50.9234 6.95222H52.6002C52.9788 6.95222 53.2865 7.25631 53.2865 7.62666V7.99021C54.2666 7.06944 55.5129 6.58527 56.8924 6.58527ZM76.0439 6.89609C75.6688 6.89609 75.3628 7.20019 75.3628 7.57223V21.535C75.3628 21.907 75.6688 22.2111 76.0439 22.2111H77.795C78.1701 22.2111 78.4761 21.907 78.4761 21.535V7.57223C78.4761 7.20019 78.1701 6.89609 77.795 6.89609H76.0439ZM85.1383 7.62666V8.03778H85.14C86.2083 7.08813 87.5826 6.58527 89.1089 6.58527C92.7736 6.58527 95.1419 9.14032 95.1419 13.0952V21.5368C95.1419 21.9088 94.8342 22.2112 94.4573 22.2112H92.727C92.3501 22.2112 92.0424 21.9088 92.0424 21.5368V13.0103C92.0424 10.8256 90.8134 9.4682 88.7632 9.4682C86.7131 9.4682 85.2247 10.9343 85.2247 12.9542V21.5385C85.2247 21.9105 84.917 22.2129 84.5402 22.2129H82.7822C82.4036 22.2129 82.0976 21.9105 82.0976 21.5385V7.62666C82.0976 7.25461 82.4053 6.95222 82.7822 6.95222H84.4537C84.8306 6.95222 85.1383 7.25631 85.1383 7.62666ZM108.914 6.89445C108.535 6.89445 108.229 7.19684 108.229 7.56889V16.1803C108.229 17.7432 107.285 19.0378 105.823 19.4795C105.508 19.5746 105.185 19.6222 104.862 19.6222C102.992 19.6222 101.413 18.0219 101.413 16.1259V7.56889C101.413 7.19854 101.106 6.89445 100.729 6.89445H98.9984C98.6216 6.89445 98.3139 7.19684 98.3139 7.56889V16.0104C98.3139 19.9483 100.682 22.4932 104.347 22.4932C105.873 22.4932 107.246 21.9971 108.316 21.0577V21.479C108.316 21.851 108.622 22.1534 109 22.1534H110.672C111.049 22.1534 111.356 21.851 111.356 21.479V7.56889C111.356 7.19854 111.049 6.89445 110.672 6.89445H108.914ZM126.311 12.7419C126.976 10.8018 128.776 9.44612 130.684 9.44612C132.593 9.44612 134.323 10.7695 134.999 12.7436H126.311V12.7419ZM122.895 14.6123C122.895 19.0819 126.38 22.5849 130.828 22.5849C134.193 22.5849 136.793 20.898 137.964 17.9556C138.047 17.745 138.021 17.5088 137.891 17.3219C137.763 17.1385 137.552 17.0263 137.326 17.0263H135.436C135.18 17.0263 134.947 17.169 134.828 17.3984C134.038 18.9188 132.655 19.7241 130.826 19.7241C128.458 19.7241 126.515 18.0219 126.1 15.5755H137.81C137.995 15.5755 138.174 15.5008 138.302 15.37C138.432 15.2392 138.501 15.0659 138.496 14.8841C138.353 9.49368 134.363 6.58527 130.681 6.58527C126.385 6.58527 122.892 10.1868 122.892 14.614L122.895 14.6123ZM19.9394 8.03596V7.62654C19.9394 7.25619 19.6317 6.9521 19.2532 6.9521H17.5764C17.1978 6.9521 16.8901 7.25449 16.8901 7.62654V21.5383C16.8901 21.9104 17.1978 22.2128 17.5764 22.2128H19.3396C19.7182 22.2128 20.0259 21.9104 20.0259 21.5383V13.4366C20.0259 10.6505 22.1158 9.65835 24.0864 9.65835C24.4702 9.65835 24.7813 9.35596 24.7813 8.98561V7.26129C24.7813 6.90453 24.5013 6.60893 24.1452 6.58854C24.0363 6.58175 23.9257 6.58005 23.8168 6.58005C22.3526 6.58005 20.9403 7.11009 19.9412 8.03935L19.9394 8.03596ZM32.1228 15.7148C28.3613 15.183 26.0328 14.2521 26.0328 11.2655H26.0311C26.0311 9.01286 27.9603 6.58692 32.1954 6.58692C35.6475 6.58692 38.014 8.24668 38.5257 11.0277C38.562 11.2281 38.5084 11.4337 38.3753 11.59C38.2456 11.7429 38.0537 11.8312 37.8515 11.8312H36.0347C35.7322 11.8312 35.466 11.6342 35.3744 11.3403C35.0044 10.1545 33.8947 9.47494 32.1971 9.47494C30.4996 9.47494 29.1686 10.2241 29.1686 11.1806C29.1686 11.9179 29.6906 12.261 32.6258 12.7197C35.4245 13.1546 38.9094 13.6966 38.9094 17.5088C38.9094 20.5616 36.3286 22.6138 32.4858 22.6138C28.8367 22.6138 26.1936 20.7535 25.5903 17.7602C25.5505 17.5563 25.6024 17.3491 25.7355 17.1894C25.8652 17.0331 26.057 16.943 26.2627 16.943H28.0761C28.3786 16.943 28.6448 17.1486 28.726 17.4425C29.1046 18.8118 30.5809 19.6969 32.4858 19.6969C34.7019 19.6969 35.8601 18.6674 35.8601 17.6515C35.8601 16.977 35.8601 16.2125 32.1228 15.7148ZM42.2423 3.83809C41.8637 3.83809 41.5577 4.14048 41.5577 4.51253V6.95376H40.2301C39.8533 6.95376 39.5456 7.25615 39.5456 7.6282V9.24719C39.5456 9.61924 39.8516 9.92163 40.2301 9.92163H41.5577V16.5522C41.5577 20.0212 43.6528 22.262 46.8957 22.262C47.0773 22.262 47.2622 22.2552 47.4489 22.2416C47.8016 22.2161 48.0764 21.9205 48.0764 21.5689V20.0161C48.0764 19.6441 47.7704 19.3434 47.3901 19.3434H47.3538C45.5388 19.3434 44.6554 18.4311 44.6554 16.5539V9.92163H47.3331C47.7099 9.92163 48.0176 9.61924 48.0176 9.24719V7.6282C48.0176 7.25615 47.7099 6.95376 47.3331 6.95376H44.6554V4.51253C44.6554 4.14048 44.3495 3.83809 43.9709 3.83809H42.2423ZM11.6195 24.2717C11.6679 24.2666 11.7163 24.2666 11.7647 24.2666H11.7664C12.9108 24.2666 13.8737 25.1415 13.9497 26.2798C14.0292 27.4672 13.1131 28.4916 11.9065 28.5698C10.6982 28.6479 9.65579 27.7493 9.57627 26.5618C9.49676 25.3743 10.4112 24.3499 11.6195 24.2717Z" fill="white"/>
</svg>
