<svg width="124" height="26" viewBox="0 0 124 26" fill="none" xmlns="http://www.w3.org/2000/svg">
<path fill-rule="evenodd" clip-rule="evenodd" d="M2.70812 6.05295C2.70812 4.05456 3.25068 2.56218 4.3235 1.6166C5.13811 0.882494 6.18942 0.509399 7.4436 0.509399C7.61575 0.509399 7.7925 0.515441 7.97079 0.529036C8.28434 0.553204 8.53026 0.816032 8.53026 1.12871V2.48363C8.53026 2.81443 8.25975 3.0833 7.92622 3.08179H7.79865C7.08548 3.08179 6.57828 3.24644 6.20171 3.59687C5.56847 4.17086 5.47471 5.38229 5.47471 6.05295V6.25687H11.821C12.1591 6.25687 12.4327 6.52574 12.4327 6.85654V19.1959C12.4327 19.5267 12.1576 19.7955 11.821 19.7955H10.2763C9.93968 19.7955 9.66456 19.5267 9.66456 19.1959V8.89875H5.47625V24.9282C5.47625 25.259 5.20267 25.5294 4.86606 25.5294H3.31985C2.98325 25.5294 2.70966 25.259 2.70966 24.9282V8.89875H1.5231C1.18496 8.89875 0.911377 8.62988 0.911377 8.29908V6.85654C0.911377 6.52574 1.18496 6.25687 1.5231 6.25687H2.70812V6.05295ZM103.118 4.05756C103.118 3.72676 103.392 3.45789 103.727 3.45789H105.266C105.602 3.45789 105.874 3.72676 105.874 4.05756V6.22816H108.255C108.59 6.22816 108.864 6.49703 108.864 6.82783V8.26734C108.864 8.59814 108.59 8.86701 108.255 8.86701H105.874V14.764C105.874 16.4331 106.658 17.2443 108.274 17.2443H108.306C108.642 17.2443 108.914 17.5116 108.914 17.8424V19.223C108.914 19.5357 108.669 19.7985 108.357 19.8212C108.191 19.8333 108.026 19.8393 107.865 19.8393C104.981 19.8393 103.118 17.847 103.118 14.7625V8.86701H101.938C101.603 8.86701 101.329 8.59814 101.329 8.26734V6.82783C101.329 6.49703 101.603 6.22816 101.938 6.22816H103.118V4.05756ZM51.1342 5.90044C52.8716 5.90044 54.282 6.58095 55.2134 7.86956C56.1603 6.59904 57.6244 5.90044 59.331 5.90044C62.5387 5.90044 64.5307 8.03328 64.5307 11.4636V19.1959C64.5307 19.5267 64.2571 19.7956 63.9205 19.7956H62.3528C62.0162 19.7956 61.7426 19.5267 61.7426 19.1959V11.4123C61.7426 10.0664 61.2753 8.46377 59.0498 8.46377C57.4298 8.46377 56.254 9.76734 56.254 11.5633V19.1959C56.254 19.5267 55.9804 19.7956 55.6438 19.7956H54.1022C53.7656 19.7956 53.492 19.5267 53.492 19.1959V11.4123C53.492 9.51055 52.5452 8.46377 50.8253 8.46377C49.2176 8.46377 48.0049 9.79604 48.0049 11.5633V19.1959C48.0049 19.5267 47.7313 19.7956 47.3947 19.7956H45.827C45.4904 19.7956 45.2168 19.5267 45.2168 19.1959V6.82638C45.2168 6.49558 45.4904 6.22671 45.827 6.22671H47.3179C47.6545 6.22671 47.9281 6.49709 47.9281 6.82638V7.14963C48.7995 6.33094 49.9077 5.90044 51.1342 5.90044ZM68.1626 6.1768C67.829 6.1768 67.557 6.44718 67.557 6.77798V19.1928C67.557 19.5236 67.829 19.794 68.1626 19.794H69.7196C70.0531 19.794 70.3251 19.5236 70.3251 19.1928V6.77798C70.3251 6.44718 70.0531 6.1768 69.7196 6.1768H68.1626ZM76.2487 6.82638V7.19193H76.2503C77.2001 6.34755 78.422 5.90044 79.7792 5.90044C83.0376 5.90044 85.1433 8.17224 85.1433 11.6887V19.1944C85.1433 19.5252 84.8697 19.7941 84.5347 19.7941H82.9961C82.6611 19.7941 82.3875 19.5252 82.3875 19.1944V11.6132C82.3875 9.67067 81.2947 8.46377 79.4718 8.46377C77.6489 8.46377 76.3256 9.76734 76.3256 11.5633V19.1959C76.3256 19.5267 76.052 19.7956 75.7169 19.7956H74.1538C73.8172 19.7956 73.5452 19.5267 73.5452 19.1959V6.82638C73.5452 6.49558 73.8187 6.22671 74.1538 6.22671H75.6401C75.9752 6.22671 76.2487 6.49709 76.2487 6.82638ZM97.3885 6.17532C97.0519 6.17532 96.7799 6.44419 96.7799 6.77499V14.4317C96.7799 15.8214 95.9407 16.9724 94.6404 17.3651C94.3607 17.4497 94.0732 17.492 93.7858 17.492C92.1228 17.492 90.7195 16.0691 90.7195 14.3834V6.77499C90.7195 6.4457 90.4459 6.17532 90.1109 6.17532H88.5723C88.2373 6.17532 87.9637 6.44419 87.9637 6.77499V14.2807C87.9637 17.782 90.0694 20.0448 93.3278 20.0448C94.685 20.0448 95.9053 19.6037 96.8567 18.7684V19.143C96.8567 19.4738 97.1288 19.7427 97.4654 19.7427H98.9517C99.2867 19.7427 99.5603 19.4738 99.5603 19.143V6.77499C99.5603 6.4457 99.2867 6.17532 98.9517 6.17532H97.3885ZM112.857 11.3745C113.449 9.64952 115.049 8.44413 116.745 8.44413C118.442 8.44413 119.981 9.62082 120.582 11.376H112.857V11.3745ZM109.82 13.0376C109.82 17.0117 112.918 20.1264 116.873 20.1264C119.866 20.1264 122.177 18.6265 123.218 16.0103C123.292 15.823 123.268 15.613 123.153 15.4468C123.039 15.2837 122.852 15.184 122.651 15.184H120.971C120.743 15.184 120.536 15.3109 120.43 15.5148C119.727 16.8667 118.498 17.5827 116.871 17.5827C114.766 17.5827 113.038 16.0692 112.669 13.894H123.081C123.245 13.894 123.405 13.8276 123.519 13.7113C123.634 13.595 123.696 13.4409 123.691 13.2793C123.564 8.48643 120.016 5.90044 116.742 5.90044C112.923 5.90044 109.817 9.10271 109.817 13.0391L109.82 13.0376ZM18.2779 7.19036V6.82633C18.2779 6.49704 18.0043 6.22666 17.6677 6.22666H16.1768C15.8402 6.22666 15.5666 6.49553 15.5666 6.82633V19.1959C15.5666 19.5267 15.8402 19.7955 16.1768 19.7955H17.7445C18.0812 19.7955 18.3547 19.5267 18.3547 19.1959V11.9923C18.3547 9.51503 20.213 8.63289 21.9651 8.63289C22.3063 8.63289 22.583 8.36402 22.583 8.03473V6.50157C22.583 6.18436 22.334 5.92154 22.0174 5.90341C21.9206 5.89737 21.8222 5.89586 21.7254 5.89586C20.4235 5.89586 19.1678 6.36713 18.2794 7.19338L18.2779 7.19036ZM29.1106 14.0179C25.7661 13.5451 23.6958 12.7173 23.6958 10.0619H23.6942C23.6942 8.05893 25.4095 5.90193 29.1752 5.90193C32.2445 5.90193 34.3487 7.37769 34.8036 9.85039C34.8359 10.0286 34.7883 10.2114 34.6699 10.3504C34.5546 10.4863 34.384 10.5649 34.2042 10.5649H32.5888C32.3198 10.5649 32.0831 10.3896 32.0017 10.1283C31.6728 9.07399 30.686 8.46979 29.1767 8.46979C27.6674 8.46979 26.4839 9.13592 26.4839 9.98633C26.4839 10.6419 26.9481 10.947 29.5579 11.3549C32.0463 11.7415 35.1448 12.2234 35.1448 15.613C35.1448 18.3273 32.8501 20.152 29.4334 20.152C26.1888 20.152 23.8387 18.498 23.3023 15.8365C23.2669 15.6553 23.3131 15.471 23.4314 15.329C23.5467 15.19 23.7173 15.11 23.9002 15.11H25.5125C25.7815 15.11 26.0182 15.2927 26.0904 15.5541C26.427 16.7715 27.7396 17.5585 29.4334 17.5585C31.4038 17.5585 32.4336 16.6431 32.4336 15.7398C32.4336 15.1402 32.4336 14.4605 29.1106 14.0179ZM38.1082 3.45789C37.7716 3.45789 37.4995 3.72676 37.4995 4.05756V6.22816H36.3191C35.9841 6.22816 35.7105 6.49703 35.7105 6.82783V8.26734C35.7105 8.59814 35.9825 8.86701 36.3191 8.86701H37.4995V14.7625C37.4995 17.847 39.3624 19.8393 42.2458 19.8393C42.4072 19.8393 42.5716 19.8333 42.7376 19.8212C43.0512 19.7985 43.2956 19.5357 43.2956 19.223V17.8424C43.2956 17.5116 43.0235 17.2443 42.6854 17.2443H42.6531C41.0392 17.2443 40.2538 16.4331 40.2538 14.764V8.86701H42.6346C42.9697 8.86701 43.2433 8.59814 43.2433 8.26734V6.82783C43.2433 6.49703 42.9697 6.22816 42.6346 6.22816H40.2538V4.05756C40.2538 3.72676 39.9818 3.45789 39.6452 3.45789H38.1082ZM10.8803 21.6263C10.9234 21.6218 10.9664 21.6218 11.0094 21.6218H11.011C12.0285 21.6218 12.8846 22.3997 12.9522 23.4117C13.0229 24.4676 12.2083 25.3784 11.1355 25.4479C10.0611 25.5174 9.13431 24.7183 9.0636 23.6625C8.9929 22.6066 9.80597 21.6958 10.8803 21.6263Z" fill="#ABABAB"/>
</svg>
