<svg width="157" height="36" viewBox="0 0 157 36" fill="none" xmlns="http://www.w3.org/2000/svg">
<path fill-rule="evenodd" clip-rule="evenodd" d="M16.6122 3.10421C16.612 3.299 16.6502 3.49191 16.7247 3.67193C16.7992 3.85195 16.9084 4.01554 17.0462 4.15335C17.184 4.29116 17.3477 4.40048 17.5278 4.47507C17.7079 4.54966 17.901 4.58805 18.096 4.58805C18.2909 4.58799 18.484 4.54954 18.664 4.47493C18.8441 4.40031 19.0077 4.29097 19.1454 4.15317C19.2832 4.01537 19.3924 3.8518 19.4668 3.67182C19.5413 3.49183 19.5795 3.29895 19.5793 3.10421C19.5794 2.90946 19.5411 2.7166 19.4666 2.53664C19.3921 2.35667 19.2829 2.19314 19.1451 2.05539C19.0073 1.91764 18.8436 1.80836 18.6635 1.7338C18.4835 1.65925 18.2904 1.62087 18.0955 1.62087C17.9006 1.62094 17.7076 1.65936 17.5276 1.73395C17.3475 1.80854 17.184 1.91782 17.0462 2.05557C16.9085 2.19332 16.7993 2.35683 16.7248 2.53675C16.6503 2.71668 16.612 2.9095 16.6122 3.10421ZM18.0957 0C17.6879 0.000167215 17.2841 0.0805687 16.9074 0.236616C16.5306 0.392695 16.1883 0.621395 15.9 0.909654C15.6116 1.19791 15.383 1.54008 15.2271 1.91663C15.0711 2.29317 14.991 2.69671 14.9912 3.10421C14.9908 3.51174 15.0709 3.91535 15.2267 4.29198C15.3826 4.66861 15.6111 5.01088 15.8994 5.29924C16.1877 5.5876 16.53 5.8164 16.9068 5.97257C17.2836 6.12875 17.6875 6.20923 18.0955 6.20943C18.5034 6.2093 18.9074 6.12888 19.2842 5.97277C19.661 5.81666 20.0034 5.58791 20.2917 5.2996C20.58 5.01128 20.8086 4.66905 20.9646 4.29245C21.1204 3.91585 21.2006 3.51225 21.2003 3.10472C21.2006 2.69718 21.1204 2.29358 20.9646 1.91698C20.8086 1.54038 20.58 1.19815 20.2917 0.909834C20.0034 0.621521 19.661 0.392776 19.2842 0.236665C18.9074 0.0805849 18.5036 0.00016654 18.0957 0ZM16.6122 32.0782C16.612 32.2729 16.6502 32.4659 16.7247 32.6459C16.7992 32.8259 16.9084 32.9895 17.0462 33.1273C17.184 33.2651 17.3477 33.3744 17.5278 33.449C17.7079 33.5236 17.901 33.562 18.096 33.562C18.2909 33.5619 18.484 33.5235 18.664 33.4489C18.8441 33.3743 19.0077 33.2649 19.1454 33.1271C19.2832 32.9893 19.3924 32.8258 19.4668 32.6458C19.5413 32.4658 19.5795 32.2729 19.5793 32.0782C19.5794 31.8834 19.541 31.6906 19.4665 31.5107C19.392 31.3307 19.2827 31.1672 19.1449 31.0295C19.0071 30.8918 18.8435 30.7825 18.6635 30.7079C18.4834 30.6333 18.2904 30.5949 18.0955 30.5948C17.9006 30.5949 17.7076 30.6333 17.5276 30.7079C17.3475 30.7825 17.184 30.8918 17.0462 31.0295C16.9085 31.1673 16.7993 31.3308 16.7248 31.5107C16.6503 31.6906 16.612 31.8835 16.6122 32.0782ZM18.0957 28.974C17.6879 28.9741 17.2841 29.0545 16.9074 29.2106C16.5306 29.3666 16.1883 29.5953 15.9 29.8836C15.6116 30.1719 15.383 30.514 15.2271 30.8906C15.0711 31.2671 14.991 31.6707 14.9912 32.0782C14.9908 32.4857 15.0709 32.8893 15.2267 33.2659C15.3826 33.6426 15.6111 33.9848 15.8994 34.2732C16.1877 34.5615 16.53 34.7904 16.9068 34.9465C17.2836 35.1027 17.6875 35.1832 18.0955 35.1834C18.5034 35.1832 18.9074 35.1028 19.2842 34.9467C19.661 34.7906 20.0034 34.5619 20.2917 34.2735C20.58 33.9852 20.8086 33.643 20.9646 33.2664C21.1204 32.8898 21.2006 32.4862 21.2003 32.0787C21.2006 31.6711 21.1204 31.2675 20.9646 30.8909C20.8086 30.5143 20.58 30.1721 20.2917 29.8838C20.0034 29.5955 19.661 29.3667 19.2842 29.2106C18.9074 29.0545 18.5036 28.9741 18.0957 28.974ZM31.0991 17.5912C31.1063 17.9795 31.2657 18.3495 31.5432 18.6215C31.8206 18.8936 32.1938 19.046 32.5826 19.046C32.9714 19.046 33.3446 18.8936 33.6221 18.6215C33.8995 18.3495 34.059 17.9795 34.0662 17.5912C34.0663 17.3964 34.028 17.2036 33.9535 17.0236C33.879 16.8437 33.7697 16.6801 33.6319 16.5424C33.4941 16.4046 33.3305 16.2953 33.1504 16.2208C32.9703 16.1462 32.7773 16.1078 32.5824 16.1078C32.1888 16.1081 31.8114 16.2645 31.5333 16.5427C31.2551 16.8209 31.0989 17.198 31.0991 17.5912ZM32.5829 14.487C32.175 14.4871 31.7711 14.5675 31.3943 14.7236C31.0175 14.8797 30.6752 15.1084 30.3868 15.3966C30.0985 15.6849 29.8699 16.0271 29.7139 16.4036C29.558 16.7801 29.4779 17.1837 29.4781 17.5912C29.4778 17.9987 29.5579 18.4023 29.7138 18.7789C29.8697 19.1555 30.0983 19.4978 30.3867 19.7861C30.675 20.0744 31.0173 20.3031 31.3942 20.4592C31.771 20.6153 32.1749 20.6958 32.5829 20.6959C32.9908 20.6957 33.3947 20.6152 33.7714 20.4591C34.1482 20.3029 34.4905 20.0742 34.7788 19.7859C35.067 19.4976 35.2956 19.1554 35.4515 18.7788C35.6074 18.4022 35.6874 17.9987 35.6872 17.5912C35.6874 17.1837 35.6072 16.7802 35.4513 16.4037C35.2954 16.0272 35.0668 15.6851 34.7786 15.3968C34.4903 15.1086 34.148 14.8798 33.7713 14.7237C33.3946 14.5676 32.9907 14.4872 32.5829 14.487ZM2.12477 17.5912C2.12457 17.786 2.1628 17.9789 2.23728 18.1589C2.31176 18.3389 2.42103 18.5025 2.55883 18.6403C2.69664 18.7781 2.86028 18.8875 3.04041 18.962C3.22053 19.0366 3.41361 19.075 3.60859 19.075C3.80354 19.075 3.99656 19.0365 4.17662 18.9619C4.35669 18.8873 4.52027 18.7779 4.65802 18.6401C4.79578 18.5023 4.905 18.3388 4.97944 18.1588C5.05389 17.9788 5.09211 17.7859 5.0919 17.5912C5.09204 17.3964 5.05376 17.2036 4.97925 17.0236C4.90474 16.8437 4.79546 16.6801 4.65766 16.5424C4.51986 16.4046 4.35624 16.2953 4.17615 16.2208C3.99606 16.1462 3.80303 16.1078 3.60808 16.1078C3.41314 16.1078 3.22011 16.1462 3.04001 16.2208C2.85992 16.2953 2.6963 16.4046 2.5585 16.5424C2.4207 16.6801 2.31143 16.8437 2.23692 17.0236C2.16241 17.2036 2.12413 17.3964 2.12426 17.5912H2.12477ZM3.60834 14.487C3.20052 14.4871 2.79672 14.5675 2.42 14.7236C2.04321 14.8797 1.70088 15.1084 1.41256 15.3966C1.12425 15.6849 0.895596 16.0271 0.739667 16.4036C0.583738 16.7801 0.503586 17.1837 0.503785 17.5912C0.503519 17.9987 0.583605 18.4022 0.739472 18.7788C0.895339 19.1554 1.12393 19.4976 1.4122 19.7859C1.70047 20.0742 2.04276 20.3029 2.41953 20.4591C2.79631 20.6152 3.20018 20.6957 3.60808 20.6959C4.01603 20.6958 4.41996 20.6153 4.79679 20.4592C5.17362 20.3031 5.51597 20.0744 5.8043 19.7861C6.09262 19.4978 6.32126 19.1555 6.47716 18.7789C6.63305 18.4023 6.71316 17.9987 6.71289 17.5912C6.71309 17.1837 6.63294 16.7801 6.47701 16.4036C6.32108 16.0271 6.09243 15.6849 5.80412 15.3966C5.5158 15.1084 5.17347 14.8797 4.79667 14.7236C4.41995 14.5675 4.01616 14.4871 3.60834 14.487ZM6.80416 8.39623C6.94183 8.53396 7.10533 8.64322 7.28531 8.71776C7.46528 8.79231 7.6582 8.83068 7.85304 8.83068C8.04787 8.83068 8.24079 8.79231 8.42076 8.71776C8.60074 8.64322 8.76424 8.53396 8.90191 8.39623C9.18009 8.11792 9.33634 7.7407 9.33634 7.3474C9.33634 6.9541 9.18009 6.57688 8.90191 6.29857C8.76424 6.16085 8.60074 6.05159 8.42076 5.97704C8.24079 5.9025 8.04787 5.86413 7.85304 5.86413C7.6582 5.86413 7.46528 5.9025 7.28531 5.97704C7.10533 6.05159 6.94183 6.16085 6.80416 6.29857C6.52598 6.57688 6.36973 6.9541 6.36973 7.3474C6.36973 7.7407 6.52598 8.11792 6.80416 8.39623ZM5.6579 5.15245C5.07581 5.73493 4.74888 6.52435 4.74888 7.3474C4.74888 8.17046 5.07581 8.95988 5.6579 9.54235C5.94602 9.83058 6.2882 10.0592 6.66487 10.2153C7.04153 10.3713 7.44528 10.4516 7.85304 10.4516C8.26079 10.4516 8.66454 10.3713 9.0412 10.2153C9.41787 10.0592 9.76005 9.83058 10.0482 9.54235C10.6303 8.95988 10.9572 8.17046 10.9572 7.3474C10.9572 6.52435 10.6303 5.73493 10.0482 5.15245C9.76005 4.86422 9.41787 4.63556 9.0412 4.47955C8.66454 4.32354 8.26079 4.24323 7.85304 4.24323C7.44528 4.24323 7.04153 4.32354 6.66487 4.47955C6.2882 4.63556 5.94602 4.86422 5.6579 5.15245ZM27.2906 28.8843C27.4283 29.022 27.5918 29.1312 27.7718 29.2057C27.9517 29.2802 28.1446 29.3185 28.3394 29.3185C28.5343 29.3185 28.7272 29.2802 28.9071 29.2057C29.0871 29.1312 29.2506 29.022 29.3883 28.8843C29.6665 28.6059 29.8228 28.2286 29.8228 27.8352C29.8228 27.4418 29.6665 27.0645 29.3883 26.7861C29.2507 26.6484 29.0872 26.5391 28.9072 26.4646C28.7272 26.3901 28.5343 26.3517 28.3394 26.3517C28.1446 26.3517 27.9517 26.3901 27.7717 26.4646C27.5917 26.5391 27.4283 26.6484 27.2906 26.7861C27.0122 27.0645 26.8559 27.4418 26.8559 27.8352C26.8559 28.2286 27.0122 28.606 27.2906 28.8843ZM26.1443 25.64C25.5621 26.2225 25.235 27.012 25.235 27.8352C25.235 28.6584 25.5621 29.4479 26.1443 30.0304C26.4324 30.3187 26.7746 30.5473 27.1513 30.7033C27.5279 30.8593 27.9317 30.9396 28.3394 30.9396C28.7472 30.9396 29.151 30.8593 29.5276 30.7033C29.9043 30.5473 30.2465 30.3187 30.5346 30.0304C31.117 29.448 31.4441 28.6584 31.4441 27.8352C31.4441 27.012 31.117 26.2224 30.5346 25.64C30.2465 25.3518 29.9043 25.1231 29.5276 24.9671C29.151 24.8111 28.7472 24.7308 28.3394 24.7308C27.9317 24.7308 27.5279 24.8111 27.1513 24.9671C26.7746 25.1231 26.4324 25.3518 26.1443 25.64ZM27.2906 8.39623C27.4283 8.53396 27.5917 8.64322 27.7717 8.71776C27.9517 8.79231 28.1446 8.83068 28.3394 8.83068C28.5343 8.83068 28.7272 8.79231 28.9072 8.71776C29.0872 8.64322 29.2507 8.53396 29.3883 8.39623C29.6664 8.11786 29.8225 7.74066 29.8225 7.3474C29.8225 6.95414 29.6664 6.57695 29.3883 6.29857C29.2507 6.16085 29.0872 6.05159 28.9072 5.97704C28.7272 5.9025 28.5343 5.86413 28.3394 5.86413C28.1446 5.86413 27.9517 5.9025 27.7717 5.97704C27.5917 6.05159 27.4283 6.16085 27.2906 6.29857C27.0124 6.57688 26.8561 6.9541 26.8561 7.3474C26.8561 7.7407 27.0124 8.11792 27.2906 8.39623ZM26.1443 5.15245C25.5622 5.73493 25.2353 6.52435 25.2353 7.3474C25.2353 8.17046 25.5622 8.95988 26.1443 9.54235C26.4324 9.83058 26.7746 10.0592 27.1513 10.2153C27.5279 10.3713 27.9317 10.4516 28.3394 10.4516C28.7472 10.4516 29.151 10.3713 29.5276 10.2153C29.9043 10.0592 30.2465 9.83058 30.5346 9.54235C31.1168 8.95994 31.4438 8.1705 31.4438 7.3474C31.4438 6.52431 31.1168 5.73486 30.5346 5.15245C30.2465 4.86422 29.9043 4.63556 29.5276 4.47955C29.151 4.32354 28.7472 4.24323 28.3394 4.24323C27.9317 4.24323 27.5279 4.32354 27.1513 4.47955C26.7746 4.63556 26.4324 4.86422 26.1443 5.15245ZM6.80416 28.8843C6.94183 29.022 7.10533 29.1313 7.28531 29.2058C7.46528 29.2804 7.6582 29.3187 7.85304 29.3187C8.04787 29.3187 8.24079 29.2804 8.42076 29.2058C8.60074 29.1313 8.76424 29.022 8.90191 28.8843C9.18025 28.606 9.33659 28.2286 9.33659 27.8352C9.33659 27.4418 9.18025 27.0645 8.90191 26.7861C8.76424 26.6484 8.60074 26.5391 8.42076 26.4646C8.24079 26.3901 8.04787 26.3517 7.85304 26.3517C7.6582 26.3517 7.46528 26.3901 7.28531 26.4646C7.10533 26.5391 6.94183 26.6484 6.80416 26.7861C6.52582 27.0645 6.36948 27.4418 6.36948 27.8352C6.36948 28.2286 6.52582 28.606 6.80416 28.8843ZM5.6579 25.64C5.07566 26.2225 4.74863 27.012 4.74863 27.8352C4.74863 28.6584 5.07566 29.4479 5.6579 30.0304C5.94602 30.3187 6.2882 30.5473 6.66487 30.7033C7.04153 30.8593 7.44528 30.9396 7.85304 30.9396C8.26079 30.9396 8.66454 30.8593 9.0412 30.7033C9.41787 30.5473 9.76005 30.3187 10.0482 30.0304C10.6304 29.4479 10.9574 28.6584 10.9574 27.8352C10.9574 27.012 10.6304 26.2225 10.0482 25.64C9.76005 25.3518 9.41787 25.1231 9.0412 24.9671C8.66454 24.8111 8.26079 24.7308 7.85304 24.7308C7.44528 24.7308 7.04153 24.8111 6.66487 24.9671C6.2882 25.1231 5.94602 25.3518 5.6579 25.64ZM14.9912 17.5912C14.991 17.1837 15.0711 16.7802 15.227 16.4037C15.3829 16.0272 15.6115 15.685 15.8998 15.3968C16.1881 15.1085 16.5303 14.8798 16.9071 14.7237C17.2838 14.5676 17.6876 14.4872 18.0955 14.487C18.5034 14.4871 18.9073 14.5675 19.2841 14.7236C19.6609 14.8797 20.0032 15.1084 20.2915 15.3966C20.5798 15.6849 20.8085 16.027 20.9644 16.4036C21.1204 16.7801 21.2005 17.1837 21.2003 17.5912C21.2006 17.9987 21.1206 18.4024 20.9647 18.7791C20.8089 19.1557 20.5802 19.498 20.2919 19.7864C20.0036 20.0747 19.6612 20.3035 19.2843 20.4597C18.9075 20.6158 18.5035 20.6963 18.0955 20.6964C17.6876 20.6962 17.2837 20.6157 16.907 20.4596C16.5302 20.3034 16.1879 20.0747 15.8996 19.7864C15.6114 19.4981 15.3828 19.1559 15.2269 18.7793C15.071 18.4027 14.9909 17.9992 14.9912 17.5917V17.5912ZM17.0604 9.31312C17.0604 9.17732 17.0872 9.04286 17.1392 8.9174C17.1912 8.79194 17.2675 8.67795 17.3636 8.58193C17.4597 8.48591 17.5738 8.40974 17.6994 8.35777C17.825 8.30581 17.9596 8.27906 18.0955 8.27906C18.2314 8.27906 18.366 8.30581 18.4916 8.35777C18.6172 8.40974 18.7313 8.48591 18.8274 8.58193C18.9236 8.67795 18.9998 8.79194 19.0518 8.9174C19.1038 9.04286 19.1306 9.17732 19.1306 9.31312V11.3828C19.1306 11.5186 19.1038 11.653 19.0518 11.7785C18.9998 11.9039 18.9236 12.0179 18.8274 12.1139C18.7313 12.21 18.6172 12.2861 18.4916 12.3381C18.366 12.3901 18.2314 12.4168 18.0955 12.4168C17.9596 12.4168 17.825 12.3901 17.6994 12.3381C17.5738 12.2861 17.4597 12.21 17.3636 12.1139C17.2675 12.0179 17.1912 11.9039 17.1392 11.7785C17.0872 11.653 17.0604 11.5186 17.0604 11.3828V9.31312ZM26.3738 16.5566C26.9454 16.5566 27.4089 17.0201 27.4089 17.5917C27.409 17.7275 27.3822 17.862 27.3303 17.9876C27.2783 18.1131 27.202 18.2271 27.1059 18.3232C27.0098 18.4193 26.8956 18.4955 26.77 18.5475C26.6444 18.5995 26.5098 18.6262 26.3738 18.6262H24.3041C24.1682 18.6262 24.0336 18.5994 23.908 18.5473C23.7825 18.4953 23.6684 18.4191 23.5723 18.323C23.4762 18.2269 23.4001 18.1129 23.3481 17.9874C23.2961 17.8619 23.2694 17.7275 23.2695 17.5917C23.2694 17.4558 23.296 17.3212 23.348 17.1957C23.4 17.0701 23.4762 16.956 23.5723 16.8598C23.6684 16.7637 23.7826 16.6874 23.9082 16.6354C24.0339 16.5834 24.1686 16.5566 24.3046 16.5566H26.3738ZM19.1306 25.8697C19.1306 26.0055 19.1038 26.14 19.0518 26.2654C18.9998 26.3909 18.9236 26.5049 18.8274 26.6009C18.7313 26.6969 18.6172 26.7731 18.4916 26.8251C18.366 26.877 18.2314 26.9038 18.0955 26.9038C17.9596 26.9038 17.825 26.877 17.6994 26.8251C17.5738 26.7731 17.4597 26.6969 17.3636 26.6009C17.2675 26.5049 17.1912 26.3909 17.1392 26.2654C17.0872 26.14 17.0604 26.0055 17.0604 25.8697V23.8001C17.0604 23.6643 17.0872 23.5298 17.1392 23.4044C17.1912 23.2789 17.2675 23.1649 17.3636 23.0689C17.4597 22.9729 17.5738 22.8967 17.6994 22.8447C17.825 22.7928 17.9596 22.766 18.0955 22.766C18.2314 22.766 18.366 22.7928 18.4916 22.8447C18.6172 22.8967 18.7313 22.9729 18.8274 23.0689C18.9236 23.1649 18.9998 23.2789 19.0518 23.4044C19.1038 23.5298 19.1306 23.6643 19.1306 23.8001V25.8697ZM9.81721 18.6262C9.68119 18.6262 9.54651 18.5995 9.42086 18.5474C9.2952 18.4954 9.18105 18.4191 9.08492 18.323C8.98879 18.2269 8.91256 18.1128 8.8606 17.9872C8.80864 17.8616 8.78197 17.7271 8.7821 17.5912C8.78204 17.4553 8.80876 17.3208 8.86075 17.1953C8.91274 17.0698 8.98897 16.9557 9.0851 16.8597C9.18122 16.7636 9.29535 16.6874 9.42097 16.6354C9.54659 16.5834 9.68123 16.5566 9.81721 16.5566H11.8864C12.1611 16.5566 12.4246 16.6656 12.6189 16.8597C12.8131 17.0538 12.9223 17.317 12.9223 17.5914C12.9223 17.8659 12.8131 18.1291 12.6189 18.3232C12.4246 18.5172 12.1611 18.6262 11.8864 18.6262H9.81721ZM23.2175 11.0058C23.3135 10.9097 23.4276 10.8335 23.5531 10.7815C23.6787 10.7295 23.8133 10.7027 23.9492 10.7027C24.0851 10.7027 24.2197 10.7295 24.3453 10.7815C24.4708 10.8335 24.5849 10.9097 24.6809 11.0058C25.0853 11.4103 25.0853 12.0653 24.6809 12.4693L23.2175 13.9327C23.1214 14.0288 23.0074 14.105 22.8818 14.1571C22.7563 14.2091 22.6217 14.2358 22.4858 14.2358C22.3499 14.2358 22.2153 14.2091 22.0897 14.1571C21.9642 14.105 21.8501 14.0288 21.7541 13.9327C21.56 13.7386 21.451 13.4754 21.451 13.201C21.451 12.9266 21.56 12.6634 21.7541 12.4693L23.2175 11.0058ZM24.6809 24.1765C24.5849 24.2726 24.4708 24.3488 24.3453 24.4008C24.2197 24.4528 24.0851 24.4796 23.9492 24.4796C23.8133 24.4796 23.6787 24.4528 23.5531 24.4008C23.4276 24.3488 23.3135 24.2726 23.2175 24.1765L21.7541 22.7131C21.56 22.5189 21.451 22.2557 21.451 21.9813C21.451 21.7069 21.56 21.4438 21.7541 21.2496C21.8501 21.1535 21.9642 21.0773 22.0897 21.0253C22.2153 20.9733 22.3499 20.9465 22.4858 20.9465C22.6217 20.9465 22.7563 20.9733 22.8818 21.0253C23.0074 21.0773 23.1214 21.1535 23.2175 21.2496L24.6809 22.7131V22.7136C25.0853 23.1175 25.0853 23.7726 24.6809 24.1765ZM12.9735 24.1765C12.8775 24.2726 12.7634 24.3488 12.6379 24.4008C12.5123 24.4528 12.3777 24.4796 12.2418 24.4796C12.1059 24.4796 11.9713 24.4528 11.8457 24.4008C11.7202 24.3488 11.6061 24.2726 11.5101 24.1765C11.3162 23.9824 11.2073 23.7193 11.2073 23.445C11.2073 23.1708 11.3162 22.9077 11.5101 22.7136L12.9735 21.2501C13.0696 21.154 13.1836 21.0778 13.3092 21.0258C13.4347 20.9738 13.5693 20.947 13.7052 20.947C13.8411 20.947 13.9757 20.9738 14.1013 21.0258C14.2268 21.0778 14.3409 21.154 14.4369 21.2501C14.8413 21.654 14.8413 22.3096 14.4369 22.7136L12.9735 24.1765ZM11.5111 12.4688C11.317 12.2746 11.208 12.0114 11.208 11.737C11.208 11.4626 11.317 11.1995 11.5111 11.0053C11.6072 10.9092 11.7212 10.833 11.8468 10.781C11.9723 10.729 12.1069 10.7022 12.2428 10.7022C12.3787 10.7022 12.5133 10.729 12.6389 10.781C12.7644 10.833 12.8785 10.9092 12.9745 11.0053L14.438 12.4688C14.8418 12.8727 14.8418 13.5283 14.438 13.9317C14.3419 14.0278 14.2279 14.104 14.1023 14.156C13.9768 14.208 13.8422 14.2348 13.7062 14.2348C13.5703 14.2348 13.4357 14.208 13.3102 14.156C13.1846 14.104 13.0706 14.0278 12.9745 13.9317L11.5111 12.4688ZM83.0994 24.7227C87.3939 24.7227 90.2569 21.9462 90.2569 17.5912C90.2569 13.2173 87.3939 10.4598 83.0994 10.4598C78.8234 10.4598 75.9604 13.2173 75.9604 17.5912C75.9604 21.9081 78.8234 24.7227 83.0994 24.7227ZM83.0994 23.1632C79.9017 23.1632 77.8753 20.9573 77.8753 17.5912C77.8753 14.1872 79.9017 12.0192 83.0994 12.0192C86.297 12.0192 88.3234 14.1872 88.3234 17.5912C88.3234 20.9763 86.297 23.1632 83.0994 23.1632ZM58.6243 10.8401V12.3996H50.4629V16.6594H58.3083V18.2188H50.4629V24.3423H48.641V10.8401H58.6243ZM73.803 24.3423H71.665L68.1885 18.7893H64.2101V24.3423H62.3881V10.8401H68.8206C72.3529 10.8401 73.3382 12.894 73.3382 14.8147C73.3382 16.3171 72.5388 18.0476 70.1964 18.5421L73.803 24.3423ZM68.5789 12.3996H64.2101V17.2489H68.5603C70.7355 17.2489 71.4234 16.0699 71.4234 14.7957C71.4234 13.5216 70.7355 12.3996 68.5789 12.3996ZM95.5312 24.3423H93.8766V10.8401H96.0889L103.377 20.8051C103.767 21.3756 104.046 21.8321 104.232 22.3455H104.269L104.268 22.307L104.268 22.3066C104.249 21.8069 104.232 21.3193 104.232 20.615V10.8401H105.886V24.3423H103.786L96.3678 14.2632C95.996 13.6927 95.7171 13.2553 95.5312 12.7609H95.494C95.5126 13.2363 95.5312 13.7308 95.5312 14.4154V24.3423ZM120.896 10.8401H108.998V12.4186H114.036V24.3423H115.858V12.4186H120.896V10.8401ZM124.003 10.8401H125.825V24.3423H124.003V10.8401ZM132.546 22.7829V18.1998H140.392V16.6404H132.546V12.3996H140.708V10.8401H130.725V24.3423H140.838V22.7829H132.546ZM156.504 24.3423H154.366L150.889 18.7893H146.911V24.3423H145.089V10.8401H151.521C155.054 10.8401 156.039 12.894 156.039 14.8147C156.039 16.3171 155.24 18.0476 152.897 18.5421L156.504 24.3423ZM151.28 12.3996H146.911V17.2489H151.261C153.436 17.2489 154.124 16.0699 154.124 14.7957C154.124 13.5216 153.436 12.3996 151.28 12.3996Z" fill="white"/>
</svg>
