<svg width="143" height="33" viewBox="0 0 143 33" fill="none" xmlns="http://www.w3.org/2000/svg">
<path fill-rule="evenodd" clip-rule="evenodd" d="M14.6687 2.82676C14.6685 3.00414 14.7033 3.17982 14.7711 3.34375C14.839 3.50768 14.9385 3.65665 15.0639 3.78214C15.1894 3.90763 15.3385 4.00718 15.5025 4.07511C15.6665 4.14303 15.8423 4.17799 16.0199 4.17799C16.1974 4.17793 16.3732 4.14292 16.5371 4.07497C16.7011 4.00702 16.8501 3.90746 16.9755 3.78198C17.101 3.65649 17.2004 3.50754 17.2682 3.34364C17.336 3.17974 17.3708 3.00411 17.3706 2.82676C17.3707 2.64942 17.3359 2.4738 17.268 2.30992C17.2002 2.14604 17.1007 1.99713 16.9752 1.87169C16.8497 1.74625 16.7007 1.64674 16.5367 1.57884C16.3727 1.51095 16.1969 1.476 16.0194 1.476C15.8419 1.47606 15.6662 1.51105 15.5023 1.57898C15.3383 1.6469 15.1894 1.74642 15.0639 1.87185C14.9385 1.99729 14.839 2.14618 14.7712 2.31003C14.7034 2.47387 14.6686 2.64946 14.6687 2.82676ZM16.0196 0C15.6483 0.00015227 15.2806 0.0733678 14.9375 0.215468C14.5944 0.357598 14.2827 0.565857 14.0201 0.828353C13.7576 1.09085 13.5494 1.40244 13.4074 1.74533C13.2654 2.08822 13.1924 2.45569 13.1926 2.82676C13.1923 3.19788 13.2652 3.56541 13.4071 3.90838C13.549 4.25135 13.7571 4.56302 14.0196 4.82561C14.2821 5.0882 14.5939 5.29655 14.937 5.43877C15.2801 5.58098 15.6479 5.65427 16.0194 5.65446C16.3909 5.65434 16.7587 5.5811 17.1019 5.43894C17.445 5.29679 17.7568 5.08849 18.0193 4.82594C18.2819 4.5634 18.4901 4.25175 18.6321 3.90881C18.774 3.56586 18.847 3.19834 18.8467 2.82723C18.847 2.45612 18.774 2.08859 18.6321 1.74565C18.4901 1.40271 18.2819 1.09106 18.0193 0.828517C17.7568 0.565972 17.445 0.357671 17.1019 0.215512C16.7588 0.0733825 16.3911 0.000151655 16.0196 0ZM14.6687 29.2111C14.6685 29.3885 14.7033 29.5642 14.7711 29.7281C14.839 29.8921 14.9385 30.041 15.0639 30.1665C15.1894 30.292 15.3385 30.3916 15.5025 30.4595C15.6665 30.5274 15.8423 30.5624 16.0199 30.5624C16.1974 30.5623 16.3732 30.5273 16.5371 30.4593C16.7011 30.3914 16.8501 30.2918 16.9755 30.1663C17.101 30.0409 17.2004 29.8919 17.2682 29.728C17.336 29.5641 17.3708 29.3885 17.3706 29.2111C17.3707 29.0338 17.3358 28.8582 17.2679 28.6944C17.2 28.5305 17.1005 28.3816 16.9751 28.2562C16.8496 28.1308 16.7006 28.0313 16.5366 27.9633C16.3727 27.8954 16.1969 27.8604 16.0194 27.8604C15.8419 27.8604 15.6662 27.8954 15.5023 27.9633C15.3383 28.0313 15.1894 28.1308 15.0639 28.2562C14.9385 28.3817 14.839 28.5306 14.7712 28.6944C14.7034 28.8582 14.6686 29.0338 14.6687 29.2111ZM16.0196 26.3844C15.6483 26.3845 15.2806 26.4577 14.9375 26.5998C14.5944 26.742 14.2827 26.9502 14.0201 27.2127C13.7576 27.4752 13.5494 27.7868 13.4074 28.1297C13.2654 28.4726 13.1924 28.8401 13.1926 29.2111C13.1923 29.5822 13.2652 29.9498 13.4071 30.2928C13.549 30.6357 13.7571 30.9474 14.0196 31.21C14.2821 31.4726 14.5939 31.6809 14.937 31.8231C15.2801 31.9654 15.6479 32.0387 16.0194 32.0388C16.3909 32.0387 16.7587 31.9655 17.1019 31.8233C17.445 31.6812 17.7568 31.4729 18.0193 31.2103C18.2819 30.9478 18.4901 30.6361 18.6321 30.2932C18.774 29.9502 18.847 29.5827 18.8467 29.2116C18.847 28.8405 18.774 28.473 18.6321 28.13C18.4901 27.7871 18.2819 27.4754 18.0193 27.2129C17.7568 26.9503 17.445 26.742 17.1019 26.5999C16.7588 26.4578 16.3911 26.3845 16.0196 26.3844ZM27.8608 16.019C27.8673 16.3726 28.0126 16.7095 28.2652 16.9572C28.5178 17.205 28.8577 17.3438 29.2118 17.3438C29.5658 17.3438 29.9057 17.205 30.1583 16.9572C30.4109 16.7095 30.5562 16.3726 30.5627 16.019C30.5628 15.8416 30.528 15.666 30.4601 15.5021C30.3923 15.3382 30.2928 15.1893 30.1673 15.0639C30.0418 14.9384 29.8928 14.8389 29.7288 14.771C29.5648 14.7031 29.389 14.6682 29.2115 14.6682C28.8531 14.6684 28.5095 14.8109 28.2562 15.0642C28.0029 15.3175 27.8607 15.6609 27.8608 16.019ZM29.212 13.1922C28.8405 13.1923 28.4728 13.2655 28.1296 13.4077C27.7865 13.5498 27.4748 13.758 27.2122 14.0205C26.9497 14.283 26.7415 14.5946 26.5995 14.9375C26.4575 15.2804 26.3845 15.6479 26.3847 16.019C26.3844 16.3901 26.4574 16.7576 26.5993 17.1005C26.7413 17.4435 26.9495 17.7551 27.2121 18.0177C27.4746 18.2802 27.7864 18.4885 28.1295 18.6307C28.4727 18.7728 28.8405 18.8461 29.212 18.8462C29.5834 18.846 29.9512 18.7727 30.2943 18.6305C30.6374 18.4883 30.9491 18.28 31.2116 18.0175C31.4741 17.755 31.6823 17.4433 31.8242 17.1004C31.9662 16.7575 32.0391 16.39 32.0388 16.019C32.039 15.6479 31.966 15.2805 31.8241 14.9376C31.6821 14.5948 31.4739 14.2832 31.2114 14.0207C30.9489 13.7582 30.6373 13.5499 30.2942 13.4078C29.9511 13.2656 29.5834 13.1924 29.212 13.1922ZM1.47611 16.019C1.47593 16.1963 1.51074 16.372 1.57856 16.5359C1.64639 16.6999 1.74589 16.8488 1.87137 16.9743C1.99686 17.0998 2.14588 17.1994 2.30991 17.2673C2.47393 17.3352 2.64975 17.3702 2.82731 17.3702C3.00483 17.3701 3.1806 17.3351 3.34458 17.2672C3.50855 17.1992 3.65751 17.0996 3.78295 16.9742C3.90839 16.8487 4.00785 16.6997 4.07564 16.5358C4.14344 16.3719 4.17823 16.1963 4.17805 16.019C4.17817 15.8416 4.14331 15.666 4.07546 15.5021C4.00761 15.3382 3.9081 15.1893 3.78262 15.0639C3.65714 14.9384 3.50814 14.8389 3.34415 14.771C3.18015 14.7031 3.00437 14.6682 2.82685 14.6682C2.64933 14.6682 2.47355 14.7031 2.30955 14.771C2.14555 14.8389 1.99656 14.9384 1.87108 15.0639C1.74559 15.1893 1.64608 15.3382 1.57823 15.5021C1.51038 15.666 1.47552 15.8416 1.47565 16.019H1.47611ZM2.82708 13.1922C2.45571 13.1923 2.08801 13.2656 1.74496 13.4077C1.40183 13.5498 1.0901 13.758 0.827553 14.0205C0.565007 14.283 0.356792 14.5946 0.2148 14.9375C0.0728077 15.2804 -0.000181112 15.6479 0 16.019C-0.00024212 16.39 0.0726863 16.7575 0.214622 17.1004C0.356558 17.4433 0.564722 17.755 0.827225 18.0175C1.08973 18.28 1.40143 18.4883 1.74453 18.6305C2.08762 18.7727 2.4554 18.846 2.82685 18.8462C3.19834 18.8461 3.56616 18.7728 3.90931 18.6307C4.25246 18.4885 4.56422 18.2802 4.82677 18.0177C5.08932 17.7551 5.29753 17.4435 5.43949 17.1005C5.58146 16.7576 5.6544 16.3901 5.65416 16.019C5.65434 15.6479 5.58135 15.2804 5.43936 14.9375C5.29737 14.5946 5.08915 14.283 4.82661 14.0205C4.56406 13.758 4.25233 13.5498 3.90921 13.4077C3.56616 13.2656 3.19845 13.1923 2.82708 13.1922ZM5.73727 7.64581C5.86264 7.77122 6.01153 7.87072 6.17542 7.9386C6.33931 8.00649 6.51498 8.04143 6.6924 8.04143C6.86982 8.04143 7.0455 8.00649 7.20939 7.9386C7.37328 7.87072 7.52217 7.77122 7.64753 7.64581C7.90085 7.39238 8.04313 7.04887 8.04313 6.69072C8.04313 6.33257 7.90085 5.98907 7.64753 5.73563C7.52217 5.61022 7.37328 5.51072 7.20939 5.44284C7.0455 5.37496 6.86982 5.34001 6.6924 5.34001C6.51498 5.34001 6.33931 5.37496 6.17542 5.44284C6.01153 5.51072 5.86264 5.61022 5.73727 5.73563C5.48395 5.98907 5.34167 6.33257 5.34167 6.69072C5.34167 7.04887 5.48395 7.39238 5.73727 7.64581ZM4.69346 4.69195C4.1634 5.22237 3.86569 5.94123 3.86569 6.69072C3.86569 7.44021 4.1634 8.15908 4.69346 8.6895C4.95583 8.95197 5.26743 9.16019 5.61043 9.30226C5.95342 9.44433 6.32109 9.51745 6.6924 9.51745C7.06371 9.51745 7.43138 9.44433 7.77438 9.30226C8.11738 9.16019 8.42897 8.95197 8.69135 8.6895C9.22141 8.15908 9.51912 7.44021 9.51912 6.69072C9.51912 5.94123 9.22141 5.22237 8.69135 4.69195C8.42897 4.42948 8.11738 4.22125 7.77438 4.07918C7.43138 3.93712 7.06371 3.86399 6.6924 3.86399C6.32109 3.86399 5.95342 3.93712 5.61043 4.07918C5.26743 4.22125 4.95583 4.42948 4.69346 4.69195ZM24.3927 26.3027C24.5181 26.4281 24.667 26.5275 24.8309 26.5954C24.9948 26.6632 25.1704 26.6982 25.3478 26.6982C25.5252 26.6982 25.7009 26.6632 25.8648 26.5954C26.0287 26.5275 26.1776 26.4281 26.303 26.3027C26.5563 26.0492 26.6986 25.7056 26.6986 25.3474C26.6986 24.9892 26.5563 24.6456 26.303 24.3921C26.1776 24.2667 26.0287 24.1672 25.8648 24.0993C25.7009 24.0314 25.5252 23.9965 25.3478 23.9965C25.1704 23.9965 24.9947 24.0314 24.8308 24.0993C24.6669 24.1672 24.5181 24.2667 24.3927 24.3921C24.1392 24.6455 23.9969 24.9892 23.9969 25.3474C23.9969 25.7057 24.1392 26.0493 24.3927 26.3027ZM23.3489 23.3484C22.8187 23.8788 22.5209 24.5978 22.5209 25.3474C22.5209 26.097 22.8187 26.816 23.3489 27.3464C23.6113 27.6089 23.9229 27.8171 24.2658 27.9592C24.6088 28.1013 24.9765 28.1744 25.3478 28.1744C25.7191 28.1744 26.0868 28.1013 26.4298 27.9592C26.7728 27.8171 27.0844 27.6089 27.3468 27.3464C27.8771 26.816 28.175 26.0971 28.175 25.3474C28.175 24.5978 27.8771 23.8788 27.3468 23.3484C27.0844 23.0859 26.7728 22.8777 26.4298 22.7356C26.0868 22.5936 25.7191 22.5205 25.3478 22.5205C24.9765 22.5205 24.6088 22.5936 24.2658 22.7356C23.9229 22.8777 23.6113 23.0859 23.3489 23.3484ZM24.3927 7.64581C24.5181 7.77122 24.6669 7.87072 24.8308 7.9386C24.9947 8.00649 25.1704 8.04143 25.3478 8.04143C25.5252 8.04143 25.7009 8.00649 25.8648 7.9386C26.0287 7.87072 26.1776 7.77122 26.303 7.64581C26.5562 7.39232 26.6984 7.04883 26.6984 6.69072C26.6984 6.33261 26.5562 5.98913 26.303 5.73563C26.1776 5.61022 26.0287 5.51072 25.8648 5.44284C25.7009 5.37496 25.5252 5.34001 25.3478 5.34001C25.1704 5.34001 24.9947 5.37496 24.8308 5.44284C24.6669 5.51072 24.5181 5.61022 24.3927 5.73563C24.1394 5.98907 23.9971 6.33257 23.9971 6.69072C23.9971 7.04887 24.1394 7.39238 24.3927 7.64581ZM23.3489 4.69195C22.8188 5.22237 22.5211 5.94123 22.5211 6.69072C22.5211 7.44021 22.8188 8.15908 23.3489 8.6895C23.6113 8.95197 23.9229 9.16019 24.2658 9.30226C24.6088 9.44433 24.9765 9.51745 25.3478 9.51745C25.7191 9.51745 26.0868 9.44433 26.4298 9.30226C26.7728 9.16019 27.0844 8.95197 27.3468 8.6895C27.8769 8.15914 28.1747 7.44025 28.1747 6.69072C28.1747 5.94119 27.8769 5.2223 27.3468 4.69195C27.0844 4.42948 26.7728 4.22125 26.4298 4.07918C26.0868 3.93712 25.7191 3.86399 25.3478 3.86399C24.9765 3.86399 24.6088 3.93712 24.2658 4.07918C23.9229 4.22125 23.6113 4.42948 23.3489 4.69195ZM5.73727 26.3027C5.86264 26.4282 6.01153 26.5276 6.17542 26.5955C6.33931 26.6634 6.51498 26.6984 6.6924 26.6984C6.86982 26.6984 7.0455 26.6634 7.20939 26.5955C7.37328 26.5276 7.52217 26.4282 7.64753 26.3027C7.90099 26.0493 8.04337 25.7057 8.04337 25.3474C8.04337 24.9892 7.90099 24.6455 7.64753 24.3921C7.52217 24.2667 7.37328 24.1672 7.20939 24.0993C7.0455 24.0314 6.86982 23.9965 6.6924 23.9965C6.51498 23.9965 6.33931 24.0314 6.17542 24.0993C6.01153 24.1672 5.86264 24.2667 5.73727 24.3921C5.48381 24.6455 5.34144 24.9892 5.34144 25.3474C5.34144 25.7057 5.48381 26.0493 5.73727 26.3027ZM4.69346 23.3484C4.16326 23.8788 3.86546 24.5978 3.86546 25.3474C3.86546 26.097 4.16326 26.816 4.69346 27.3464C4.95583 27.6089 5.26743 27.8171 5.61043 27.9592C5.95342 28.1013 6.32109 28.1744 6.6924 28.1744C7.06371 28.1744 7.43138 28.1013 7.77438 27.9592C8.11738 27.8171 8.42897 27.6089 8.69135 27.3464C9.22155 26.816 9.51935 26.097 9.51935 25.3474C9.51935 24.5978 9.22155 23.8788 8.69135 23.3484C8.42897 23.0859 8.11738 22.8777 7.77438 22.7356C7.43138 22.5936 7.06371 22.5205 6.6924 22.5205C6.32109 22.5205 5.95342 22.5936 5.61043 22.7356C5.26743 22.8777 4.95583 23.0859 4.69346 23.3484ZM13.1926 16.0189C13.1924 15.6479 13.2654 15.2805 13.4073 14.9376C13.5493 14.5948 13.7575 14.2832 14.02 14.0207C14.2825 13.7582 14.5942 13.5499 14.9372 13.4078C15.2803 13.2656 15.648 13.1924 16.0194 13.1922C16.3909 13.1923 16.7587 13.2655 17.1018 13.4076C17.4449 13.5498 17.7567 13.758 18.0192 14.0205C18.2817 14.283 18.49 14.5946 18.632 14.9375C18.7739 15.2804 18.8469 15.6479 18.8468 16.0189C18.8471 16.3901 18.7742 16.7577 18.6322 17.1007C18.4903 17.4437 18.2821 17.7554 18.0195 18.018C17.757 18.2805 17.4452 18.4889 17.102 18.6311C16.7588 18.7733 16.391 18.8465 16.0194 18.8466C15.648 18.8465 15.2802 18.7732 14.9371 18.631C14.594 18.4888 14.2823 18.2805 14.0198 18.018C13.7573 17.7554 13.5491 17.4438 13.4072 17.1009C13.2653 16.758 13.1923 16.3905 13.1926 16.0194V16.0189ZM15.0768 8.48075C15.0768 8.35709 15.1012 8.23464 15.1486 8.1204C15.196 8.00615 15.2654 7.90235 15.3529 7.81491C15.4405 7.72747 15.5444 7.65811 15.6587 7.61079C15.7731 7.56347 15.8957 7.53911 16.0194 7.53911C16.1432 7.53911 16.2658 7.56347 16.3802 7.61079C16.4945 7.65811 16.5984 7.72747 16.686 7.81491C16.7735 7.90235 16.8429 8.00615 16.8903 8.1204C16.9377 8.23464 16.962 8.35709 16.962 8.48075V10.3654C16.962 10.4891 16.9377 10.6115 16.8903 10.7258C16.8429 10.84 16.7735 10.9438 16.686 11.0312C16.5984 11.1187 16.4945 11.188 16.3802 11.2354C16.2658 11.2827 16.1432 11.307 16.0194 11.307C15.8957 11.307 15.7731 11.2827 15.6587 11.2354C15.5444 11.188 15.4405 11.1187 15.3529 11.0312C15.2654 10.9438 15.196 10.84 15.1486 10.7258C15.1012 10.6115 15.0768 10.4891 15.0768 10.3654V8.48075ZM23.5578 15.0768C24.0784 15.0768 24.5004 15.499 24.5004 16.0194C24.5005 16.1431 24.4762 16.2656 24.4288 16.3799C24.3815 16.4942 24.3121 16.5981 24.2245 16.6855C24.137 16.773 24.0331 16.8424 23.9187 16.8898C23.8043 16.9371 23.6817 16.9615 23.5578 16.9615H21.6731C21.5493 16.9614 21.4268 16.937 21.3125 16.8897C21.1981 16.8423 21.0942 16.7729 21.0068 16.6854C20.9193 16.5979 20.8499 16.4941 20.8026 16.3798C20.7553 16.2655 20.7309 16.1431 20.731 16.0194C20.7309 15.8957 20.7552 15.7731 20.8025 15.6588C20.8498 15.5444 20.9192 15.4405 21.0068 15.353C21.0943 15.2654 21.1982 15.196 21.3127 15.1486C21.4271 15.1012 21.5497 15.0768 21.6736 15.0768H23.5578ZM16.962 23.5576C16.962 23.6813 16.9377 23.8037 16.8903 23.9179C16.8429 24.0322 16.7735 24.136 16.686 24.2234C16.5984 24.3109 16.4945 24.3802 16.3802 24.4276C16.2658 24.4749 16.1432 24.4992 16.0194 24.4992C15.8957 24.4992 15.7731 24.4749 15.6587 24.4276C15.5444 24.3802 15.4405 24.3109 15.3529 24.2234C15.2654 24.136 15.196 24.0322 15.1486 23.9179C15.1012 23.8037 15.0768 23.6813 15.0768 23.5576V21.6729C15.0768 21.5493 15.1012 21.4268 15.1486 21.3126C15.196 21.1983 15.2654 21.0945 15.3529 21.0071C15.4405 20.9197 15.5444 20.8503 15.6587 20.803C15.7731 20.7557 15.8957 20.7313 16.0194 20.7313C16.1432 20.7313 16.2658 20.7557 16.3802 20.803C16.4945 20.8503 16.5984 20.9197 16.686 21.0071C16.7735 21.0945 16.8429 21.1983 16.8903 21.3126C16.9377 21.4268 16.962 21.5493 16.962 21.6729V23.5576ZM8.48103 16.9615C8.35717 16.9615 8.23452 16.9371 8.1201 16.8897C8.00568 16.8424 7.90172 16.7729 7.81419 16.6854C7.72665 16.5978 7.65723 16.4939 7.60992 16.3796C7.5626 16.2652 7.53831 16.1427 7.53844 16.0189C7.53837 15.8952 7.56271 15.7727 7.61005 15.6585C7.6574 15.5442 7.72682 15.4403 7.81435 15.3528C7.90188 15.2653 8.00581 15.1959 8.1202 15.1486C8.2346 15.1012 8.35721 15.0768 8.48103 15.0768H10.3653C10.6155 15.0768 10.8554 15.1761 11.0323 15.3528C11.2092 15.5296 11.3086 15.7693 11.3086 16.0192C11.3086 16.2691 11.2092 16.5088 11.0323 16.6855C10.8554 16.8622 10.6155 16.9615 10.3653 16.9615H8.48103ZM20.6836 10.0222C20.7711 9.93466 20.875 9.86526 20.9893 9.8179C21.1036 9.77054 21.2262 9.74617 21.35 9.74617C21.4737 9.74617 21.5963 9.77054 21.7106 9.8179C21.8249 9.86526 21.9288 9.93466 22.0163 10.0222C22.3845 10.3905 22.3845 10.987 22.0163 11.3548L20.6836 12.6875C20.5962 12.775 20.4923 12.8444 20.378 12.8918C20.2637 12.9391 20.1411 12.9635 20.0173 12.9635C19.8936 12.9635 19.771 12.9391 19.6567 12.8918C19.5423 12.8444 19.4385 12.775 19.351 12.6875C19.1743 12.5107 19.075 12.271 19.075 12.0212C19.075 11.7713 19.1743 11.5316 19.351 11.3548L20.6836 10.0222ZM22.0163 22.0157C21.9288 22.1032 21.8249 22.1726 21.7106 22.22C21.5963 22.2673 21.4737 22.2917 21.35 22.2917C21.2262 22.2917 21.1036 22.2673 20.9893 22.22C20.875 22.1726 20.7711 22.1032 20.6836 22.0157L19.351 20.6831C19.1743 20.5062 19.075 20.2666 19.075 20.0167C19.075 19.7669 19.1743 19.5272 19.351 19.3504C19.4385 19.2629 19.5423 19.1935 19.6567 19.1461C19.771 19.0988 19.8936 19.0744 20.0173 19.0744C20.1411 19.0744 20.2637 19.0988 20.378 19.1461C20.4923 19.1935 20.5962 19.2629 20.6836 19.3504L22.0163 20.6831V20.6835C22.3845 21.0514 22.3845 21.6479 22.0163 22.0157ZM11.3552 22.0157C11.2678 22.1032 11.1639 22.1726 11.0496 22.22C10.9352 22.2673 10.8127 22.2917 10.6889 22.2917C10.5652 22.2917 10.4426 22.2673 10.3283 22.22C10.2139 22.1726 10.1101 22.1032 10.0226 22.0157C9.84601 21.8389 9.74684 21.5994 9.74684 21.3496C9.74684 21.0999 9.84601 20.8603 10.0226 20.6835L11.3552 19.3508C11.4427 19.2634 11.5466 19.194 11.6609 19.1466C11.7752 19.0992 11.8978 19.0749 12.0216 19.0749C12.1453 19.0749 12.2679 19.0992 12.3822 19.1466C12.4965 19.194 12.6004 19.2634 12.6879 19.3508C13.0561 19.7187 13.0561 20.3157 12.6879 20.6835L11.3552 22.0157ZM10.0235 11.3544C9.8468 11.1775 9.74753 10.9379 9.74753 10.688C9.74753 10.4382 9.8468 10.1985 10.0235 10.0217C10.111 9.9342 10.2149 9.86479 10.3292 9.81744C10.4435 9.77008 10.5661 9.74571 10.6898 9.74571C10.8136 9.74571 10.9362 9.77008 11.0505 9.81744C11.1648 9.86479 11.2687 9.9342 11.3562 10.0217L12.6888 11.3544C13.0565 11.7222 13.0565 12.3192 12.6888 12.6866C12.6013 12.7741 12.4975 12.8435 12.3831 12.8908C12.2688 12.9382 12.1462 12.9626 12.0225 12.9626C11.8987 12.9626 11.7762 12.9382 11.6618 12.8908C11.5475 12.8435 11.4436 12.7741 11.3562 12.6866L10.0235 11.3544ZM75.2134 22.5134C79.1241 22.5134 81.7313 19.9851 81.7313 16.0194C81.7313 12.0364 79.1241 9.52532 75.2134 9.52532C71.3197 9.52532 68.7126 12.0364 68.7126 16.0194C68.7126 19.9504 71.3197 22.5134 75.2134 22.5134ZM75.2134 21.0934C72.3016 21.0934 70.4563 19.0846 70.4563 16.0194C70.4563 12.9195 72.3016 10.9454 75.2134 10.9454C78.1253 10.9454 79.9706 12.9195 79.9706 16.0194C79.9706 19.1019 78.1253 21.0934 75.2134 21.0934ZM52.9259 9.87167V11.2917H45.4939V15.1708H52.6381V16.5908H45.4939V22.1671H43.8348V9.87167H52.9259ZM66.748 22.1671H64.8011L61.6353 17.1104H58.0124V22.1671H56.3533V9.87167H62.2109C65.4275 9.87167 66.3247 11.742 66.3247 13.491C66.3247 14.8591 65.5968 16.435 63.4637 16.8852L66.748 22.1671ZM61.9908 11.2917H58.0124V15.7077H61.9739C63.9546 15.7077 64.581 14.634 64.581 13.4737C64.581 12.3134 63.9546 11.2917 61.9908 11.2917ZM86.5342 22.1671H85.0275V9.87167H87.0421L93.6784 18.946C94.0339 19.4655 94.2878 19.8812 94.4571 20.3487H94.491L94.4897 20.3137C94.4732 19.8585 94.4571 19.4144 94.4571 18.7728V9.87167H95.9638V22.1671H94.0508L87.296 12.9888C86.9574 12.4693 86.7035 12.071 86.5342 11.6207H86.5003C86.5172 12.0537 86.5342 12.5039 86.5342 13.1274V22.1671ZM109.632 9.87167H98.797V11.309H103.385V22.1671H105.044V11.309H109.632V9.87167ZM112.462 9.87167H114.121V22.1671H112.462V9.87167ZM120.241 20.747V16.5735H127.385V15.1535H120.241V11.2917H127.673V9.87167H118.582V22.1671H127.792V20.747H120.241ZM142.057 22.1671H140.11L136.945 17.1104H133.322V22.1671H131.663V9.87167H137.52C140.737 9.87167 141.634 11.742 141.634 13.491C141.634 14.8591 140.906 16.435 138.773 16.8852L142.057 22.1671ZM137.3 11.2917H133.322V15.7077H137.283C139.264 15.7077 139.89 14.634 139.89 13.4737C139.89 12.3134 139.264 11.2917 137.3 11.2917Z" fill="#ffffff"/>
</svg>
