<svg width="39" height="40" viewBox="0 0 39 40" fill="none" xmlns="http://www.w3.org/2000/svg">
<path fill-rule="evenodd" clip-rule="evenodd" d="M17.9805 4.28803C17.8979 4.08848 17.8556 3.87464 17.8558 3.65872C17.8556 3.44289 17.8981 3.22915 17.9806 3.02971C18.0632 2.83026 18.1842 2.64902 18.3369 2.49633C18.4896 2.34364 18.6709 2.2225 18.8705 2.13982C19.07 2.05714 19.284 2.01455 19.5 2.01447C19.7161 2.01447 19.9301 2.05701 20.1297 2.13966C20.3293 2.2223 20.5107 2.34343 20.6634 2.49613C20.8162 2.64883 20.9373 2.83009 21.0199 3.02958C21.1025 3.22906 21.1449 3.44285 21.1448 3.65872C21.145 3.87459 21.1026 4.08839 21.0201 4.2879C20.9376 4.48741 20.8165 4.66872 20.6638 4.82147C20.5111 4.97422 20.3298 5.09541 20.1302 5.17813C19.9306 5.26084 19.7167 5.30345 19.5006 5.30353C19.2844 5.30353 19.0704 5.26097 18.8707 5.17829C18.6711 5.09561 18.4897 4.97443 18.3369 4.82167C18.1842 4.66891 18.0631 4.48758 17.9805 4.28803ZM18.183 0.480057C18.6006 0.307082 19.0482 0.217959 19.5003 0.217774C19.9524 0.217958 20.4 0.3071 20.8177 0.480111C21.2354 0.653157 21.6149 0.906716 21.9345 1.2263C22.2541 1.54589 22.5075 1.92525 22.6803 2.34271C22.8531 2.76016 22.9419 3.20754 22.9416 3.65928C22.9419 4.11103 22.8531 4.5584 22.6803 4.97586C22.5075 5.39331 22.2541 5.77267 21.9345 6.09226C21.6149 6.41185 21.2354 6.66541 20.8177 6.83845C20.3999 7.0115 19.9522 7.10064 19.5 7.10079C19.0478 7.10057 18.6001 7.01135 18.1824 6.83824C17.7647 6.66512 17.3853 6.4115 17.0657 6.09186C16.7462 5.77222 16.4928 5.39282 16.32 4.97534C16.1473 4.55785 16.0586 4.11046 16.059 3.65872C16.0587 3.20702 16.1476 2.7597 16.3204 2.34231C16.4933 1.92492 16.7467 1.54563 17.0663 1.2261C17.3859 0.906576 17.7654 0.653068 18.183 0.480057ZM19.5003 0.217774C19.5004 0.217774 19.5005 0.217773 19.5006 0.217773H19.5C19.5001 0.217773 19.5002 0.217774 19.5003 0.217774ZM17.9805 36.405C17.8979 36.2055 17.8556 35.9916 17.8558 35.7757C17.8556 35.5599 17.8981 35.3461 17.9806 35.1467C18.0632 34.9472 18.1842 34.766 18.3369 34.6133C18.4896 34.4606 18.6709 34.3395 18.8705 34.2568C19.07 34.1741 19.284 34.1315 19.5 34.1315C19.7161 34.1315 19.93 34.1741 20.1296 34.2568C20.3292 34.3395 20.5105 34.4606 20.6633 34.6133C20.816 34.766 20.9371 34.9472 21.0198 35.1466C21.1024 35.3461 21.1449 35.5598 21.1448 35.7757C21.145 35.9916 21.1026 36.2054 21.0201 36.4049C20.9376 36.6044 20.8165 36.7857 20.6638 36.9384C20.5111 37.0912 20.3298 37.2124 20.1302 37.2951C19.9306 37.3778 19.7167 37.4204 19.5006 37.4205C19.2844 37.4205 19.0704 37.378 18.8707 37.2953C18.6711 37.2126 18.4897 37.0914 18.3369 36.9387C18.1842 36.7859 18.0631 36.6046 17.9805 36.405ZM18.183 32.597C18.6006 32.4241 19.0482 32.3349 19.5003 32.3348C19.9524 32.3349 20.4 32.4241 20.8177 32.5971C21.2354 32.7701 21.6149 33.0237 21.9345 33.3433C22.2541 33.6629 22.5075 34.0422 22.6803 34.4597C22.8531 34.8771 22.9419 35.3245 22.9416 35.7763C22.9419 36.228 22.8531 36.6754 22.6803 37.0928C22.5075 37.5103 22.2541 37.8897 21.9345 38.2092C21.6149 38.5288 21.2354 38.7824 20.8177 38.9554C20.3999 39.1285 19.9522 39.2176 19.5 39.2178C19.0478 39.2176 18.6001 39.1283 18.1824 38.9552C17.7647 38.7821 17.3853 38.5285 17.0657 38.2088C16.7462 37.8892 16.4928 37.5098 16.32 37.0923C16.1473 36.6748 16.0586 36.2274 16.059 35.7757C16.0587 35.324 16.1476 34.8767 16.3204 34.4593C16.4933 34.0419 16.7467 33.6626 17.0663 33.3431C17.3859 33.0236 17.7654 32.77 18.183 32.597ZM19.5003 32.3348C19.5004 32.3348 19.5005 32.3348 19.5006 32.3348H19.5C19.5001 32.3348 19.5002 32.3348 19.5003 32.3348ZM34.4065 20.8593C34.0989 20.5577 33.9222 20.1476 33.9142 19.7172C33.914 19.2814 34.0872 18.8633 34.3955 18.555C34.7038 18.2466 35.1221 18.0733 35.5584 18.073C35.7745 18.073 35.9885 18.1155 36.1881 18.1981C36.3877 18.2808 36.5691 18.4019 36.7218 18.5546C36.8746 18.7073 36.9957 18.8886 37.0783 19.0881C37.1609 19.2876 37.2033 19.5013 37.2032 19.7172C37.1952 20.1476 37.0184 20.5577 36.7109 20.8593C36.4033 21.1609 35.9896 21.3299 35.5587 21.3299C35.1277 21.3299 34.714 21.1609 34.4065 20.8593ZM34.2414 16.5385C34.6591 16.3655 35.1068 16.2764 35.559 16.2763C36.0111 16.2765 36.4587 16.3657 36.8763 16.5387C37.2939 16.7118 37.6733 16.9653 37.9928 17.2848C38.3124 17.6043 38.5658 17.9836 38.7386 18.4009C38.9114 18.8183 39.0002 19.2656 39 19.7172C39.0003 20.1689 38.9115 20.6162 38.7388 21.0337C38.566 21.4511 38.3126 21.8304 37.993 22.15C37.6735 22.4696 37.2941 22.7231 36.8764 22.8962C36.4588 23.0693 36.0111 23.1585 35.559 23.1587C35.1068 23.1586 34.659 23.0694 34.2413 22.8964C33.8236 22.7233 33.4441 22.4698 33.1245 22.1502C32.8049 21.8306 32.5515 21.4512 32.3787 21.0338C32.2058 20.6163 32.1171 20.169 32.1173 19.7172C32.1171 19.2655 32.206 18.8182 32.3788 18.4008C32.5517 17.9834 32.8051 17.6041 33.1247 17.2846C33.4443 16.9651 33.8238 16.7116 34.2414 16.5385ZM1.92154 20.3465C1.83898 20.147 1.79661 19.9331 1.79683 19.7172H1.79626C1.79611 19.5013 1.83855 19.2876 1.92114 19.0881C2.00373 18.8886 2.12486 18.7073 2.27761 18.5546C2.43036 18.4019 2.61173 18.2808 2.81135 18.1981C3.01098 18.1155 3.22495 18.073 3.44105 18.073C3.65714 18.073 3.87111 18.1155 4.07074 18.1981C4.27037 18.2808 4.45174 18.4019 4.60448 18.5546C4.75723 18.7073 4.87836 18.8886 4.96095 19.0881C5.04354 19.2876 5.08598 19.5013 5.08583 19.7172C5.08605 19.9331 5.04369 20.1469 4.96117 20.3464C4.87864 20.5459 4.75758 20.7272 4.60488 20.88C4.45219 21.0327 4.27086 21.1539 4.07126 21.2366C3.87166 21.3193 3.6577 21.3619 3.44161 21.362C3.22547 21.362 3.01145 21.3195 2.81179 21.2368C2.61212 21.1541 2.43073 21.0329 2.27797 20.8802C2.12522 20.7274 2.0041 20.5461 1.92154 20.3465ZM2.12409 16.5385C2.54167 16.3656 2.98927 16.2764 3.44133 16.2763C3.89339 16.2764 4.34098 16.3656 4.75857 16.5385C5.17624 16.7116 5.55571 16.9651 5.8753 17.2846C6.19489 17.6041 6.44834 17.9834 6.62119 18.4008C6.79403 18.8182 6.88288 19.2655 6.88265 19.7172C6.88295 20.169 6.79416 20.6163 6.62135 21.0338C6.44854 21.4512 6.1951 21.8306 5.8755 22.1502C5.5559 22.4698 5.17641 22.7233 4.7587 22.8964C4.34099 23.0694 3.89325 23.1586 3.44105 23.1587C2.98889 23.1585 2.54121 23.0693 2.12356 22.8962C1.70592 22.7231 1.3265 22.4696 1.00696 22.15C0.68742 21.8304 0.434029 21.4511 0.261254 21.0337C0.088479 20.6162 -0.000294726 20.1689 7.35103e-07 19.7172C-0.000220462 19.2655 0.0886268 18.8182 0.26147 18.4008C0.434314 17.9834 0.687768 17.6041 1.00736 17.2846C1.32695 16.9651 1.70641 16.7116 2.12409 16.5385ZM3.44133 16.2763C3.44142 16.2763 3.44152 16.2763 3.44161 16.2763H3.44105C3.44114 16.2763 3.44123 16.2763 3.44133 16.2763ZM7.51717 9.88122C7.31767 9.79859 7.13643 9.67747 6.98383 9.52481C6.67547 9.21631 6.50227 8.79817 6.50227 8.36221C6.50227 7.92624 6.67547 7.5081 6.98383 7.1996C7.13643 7.04694 7.31767 6.92583 7.51717 6.84319C7.71666 6.76056 7.93051 6.71803 8.14648 6.71803C8.36245 6.71803 8.5763 6.76056 8.77579 6.84319C8.97529 6.92583 9.15653 7.04694 9.30913 7.1996C9.61749 7.5081 9.79069 7.92624 9.79069 8.36221C9.79069 8.79817 9.61749 9.21631 9.30913 9.52481C9.15653 9.67747 8.97529 9.79859 8.77579 9.88122C8.5763 9.96385 8.36245 10.0064 8.14648 10.0064C7.93051 10.0064 7.71666 9.96385 7.51717 9.88122ZM4.7056 8.36221C4.7056 7.44987 5.06799 6.57482 5.71322 5.92915C6.0326 5.60965 6.4119 5.35619 6.82942 5.18325C7.24694 5.01032 7.69449 4.9213 8.14648 4.9213C8.59847 4.9213 9.04602 5.01032 9.46354 5.18325C9.88106 5.35619 10.2604 5.60965 10.5797 5.92915C11.225 6.57482 11.5874 7.44987 11.5874 8.36221C11.5874 9.27454 11.225 10.1496 10.5797 10.7953C10.2604 11.1148 9.88106 11.3682 9.46354 11.5412C9.04602 11.7141 8.59847 11.8031 8.14648 11.8031C7.69449 11.8031 7.24694 11.7141 6.82942 11.5412C6.4119 11.3682 6.0326 11.1148 5.71322 10.7953C5.06799 10.1496 4.7056 9.27454 4.7056 8.36221ZM30.2259 32.5916C30.0265 32.509 29.8452 32.388 29.6926 32.2354C29.384 31.9269 29.2107 31.5086 29.2107 31.0725C29.2107 30.6364 29.384 30.2181 29.6926 29.9096C29.8452 29.7569 30.0264 29.6358 30.2259 29.5532C30.4254 29.4706 30.6392 29.428 30.8552 29.428C31.0712 29.428 31.285 29.4706 31.4845 29.5532C31.684 29.6358 31.8653 29.7569 32.0179 29.9096C32.3263 30.2182 32.4995 30.6364 32.4995 31.0725C32.4995 31.5085 32.3263 31.9268 32.0179 32.2354C31.8652 32.388 31.684 32.509 31.4845 32.5916C31.285 32.6742 31.0712 32.7167 30.8552 32.7167C30.6393 32.7167 30.4254 32.6742 30.2259 32.5916ZM27.4141 31.0725C27.4141 30.16 27.7766 29.2848 28.422 28.6392C28.7413 28.3197 29.1206 28.0662 29.5382 27.8933C29.9557 27.7203 30.4032 27.6313 30.8552 27.6313C31.3072 27.6313 31.7548 27.7203 32.1723 27.8933C32.5898 28.0662 32.9691 28.3197 33.2885 28.6392C33.934 29.2848 34.2966 30.16 34.2966 31.0725C34.2966 31.985 33.934 32.8602 33.2885 33.5058C32.9691 33.8253 32.5898 34.0788 32.1723 34.2517C31.7548 34.4247 31.3072 34.5137 30.8552 34.5137C30.4032 34.5137 29.9557 34.4247 29.5382 34.2517C29.1206 34.0788 28.7413 33.8253 28.422 33.5058C27.7766 32.8601 27.4141 31.985 27.4141 31.0725ZM30.2259 9.88122C30.0264 9.79859 29.8452 9.67747 29.6926 9.52481C29.3842 9.21631 29.211 8.79817 29.211 8.36221C29.211 7.92624 29.3842 7.5081 29.6926 7.1996C29.8452 7.04694 30.0264 6.92583 30.2259 6.84319C30.4254 6.76056 30.6392 6.71803 30.8552 6.71803C31.0712 6.71803 31.285 6.76056 31.4845 6.84319C31.684 6.92583 31.8653 7.04694 32.0179 7.1996C32.3261 7.50817 32.4992 7.92629 32.4992 8.36221C32.4992 8.79812 32.3261 9.21624 32.0179 9.52481C31.8653 9.67747 31.684 9.79859 31.4845 9.88122C31.285 9.96385 31.0712 10.0064 30.8552 10.0064C30.6392 10.0064 30.4254 9.96385 30.2259 9.88122ZM27.4143 8.36221C27.4143 7.44987 27.7767 6.57482 28.422 5.92915C28.7413 5.60965 29.1206 5.35619 29.5382 5.18325C29.9557 5.01032 30.4032 4.9213 30.8552 4.9213C31.3072 4.9213 31.7548 5.01032 32.1723 5.18325C32.5898 5.35619 32.9691 5.60965 33.2885 5.92915C33.9338 6.57474 34.2963 7.44982 34.2963 8.36221C34.2963 9.27459 33.9338 10.1497 33.2885 10.7953C32.9691 11.1148 32.5898 11.3682 32.1723 11.5412C31.7548 11.7141 31.3072 11.8031 30.8552 11.8031C30.4032 11.8031 29.9557 11.7141 29.5382 11.5412C29.1206 11.3682 28.7413 11.1148 28.422 10.7953C27.7767 10.1496 27.4143 9.27454 27.4143 8.36221ZM7.51717 32.5918C7.31767 32.5092 7.13643 32.388 6.98383 32.2354C6.6753 31.9269 6.50199 31.5086 6.50199 31.0725C6.50199 30.6364 6.6753 30.2181 6.98383 29.9096C7.13643 29.7569 7.31767 29.6358 7.51717 29.5532C7.71666 29.4706 7.93051 29.428 8.14648 29.428C8.36245 29.428 8.5763 29.4706 8.77579 29.5532C8.97529 29.6358 9.15653 29.7569 9.30913 29.9096C9.61766 30.2181 9.79097 30.6364 9.79097 31.0725C9.79097 31.5086 9.61766 31.9269 9.30913 32.2354C9.15653 32.388 8.97529 32.5092 8.77579 32.5918C8.5763 32.6744 8.36245 32.717 8.14648 32.717C7.93051 32.717 7.71666 32.6744 7.51717 32.5918ZM4.70532 31.0725C4.70532 30.16 5.06782 29.2848 5.71322 28.6392C6.0326 28.3197 6.4119 28.0662 6.82942 27.8933C7.24694 27.7203 7.69449 27.6313 8.14648 27.6313C8.59847 27.6313 9.04602 27.7203 9.46354 27.8933C9.88106 28.0662 10.2604 28.3197 10.5797 28.6392C11.2251 29.2848 11.5876 30.16 11.5876 31.0725C11.5876 31.985 11.2251 32.8601 10.5797 33.5058C10.2604 33.8253 9.88106 34.0788 9.46354 34.2517C9.04602 34.4247 8.59847 34.5137 8.14648 34.5137C7.69449 34.5137 7.24694 34.4247 6.82942 34.2517C6.4119 34.0788 6.0326 33.8253 5.71322 33.5058C5.06782 32.8601 4.70532 31.985 4.70532 31.0725ZM16.3204 18.4009C16.1476 18.8183 16.0588 19.2655 16.059 19.7172V19.7178C16.0587 20.1695 16.1475 20.6168 16.3202 21.0342C16.493 21.4516 16.7464 21.831 17.0659 22.1505C17.3855 22.4701 17.7649 22.7237 18.1825 22.8968C18.6002 23.0698 19.0479 23.159 19.5 23.1593C19.9523 23.1591 20.4001 23.07 20.8178 22.8969C21.2356 22.7238 21.6151 22.4702 21.9347 22.1505C22.2543 21.8309 22.5077 21.4515 22.6805 21.0339C22.8533 20.6164 22.942 20.169 22.9416 19.7172C22.9419 19.2655 22.853 18.8182 22.6802 18.4008C22.5073 17.9834 22.2539 17.6041 21.9343 17.2846C21.6147 16.9651 21.2352 16.7115 20.8176 16.5385C20.3999 16.3655 19.9522 16.2764 19.5 16.2763C19.0479 16.2765 18.6003 16.3657 18.1827 16.5387C17.7651 16.7117 17.3857 16.9653 17.0661 17.2848C16.7466 17.6043 16.4932 17.9836 16.3204 18.4009ZM18.44 10.1025C18.3823 10.2416 18.3526 10.3906 18.3526 10.5412V12.8353C18.3526 12.9858 18.3823 13.1349 18.44 13.2739C18.4976 13.413 18.5822 13.5394 18.6887 13.6458C18.7952 13.7522 18.9217 13.8367 19.0609 13.8943C19.2001 13.9519 19.3493 13.9815 19.5 13.9815C19.6507 13.9815 19.7999 13.9519 19.9391 13.8943C20.0783 13.8367 20.2048 13.7522 20.3114 13.6458C20.4179 13.5394 20.5024 13.413 20.5601 13.2739C20.6177 13.1349 20.6474 12.9858 20.6474 12.8353V10.5412C20.6474 10.3906 20.6177 10.2416 20.5601 10.1025C20.5024 9.96345 20.4179 9.83709 20.3114 9.73065C20.2048 9.62421 20.0783 9.53978 19.9391 9.48218C19.7999 9.42458 19.6507 9.39493 19.5 9.39493C19.3493 9.39493 19.2001 9.42458 19.0609 9.48218C18.9217 9.53978 18.7952 9.62421 18.6887 9.73065C18.5822 9.83709 18.4976 9.96345 18.44 10.1025ZM29.8237 19.7178C29.8237 19.0842 29.3099 18.5704 28.6763 18.5704H26.3827C26.2319 18.5704 26.0826 18.6001 25.9433 18.6578C25.804 18.7154 25.6775 18.8 25.5709 18.9065C25.4644 19.0131 25.3799 19.1396 25.3223 19.2788C25.2647 19.418 25.2351 19.5671 25.2353 19.7178C25.2352 19.8683 25.2648 20.0173 25.3224 20.1564C25.38 20.2955 25.4645 20.4219 25.571 20.5284C25.6774 20.6349 25.8039 20.7194 25.9431 20.7771C26.0822 20.8348 26.2314 20.8645 26.3821 20.8646H28.6763C28.8271 20.8646 28.9763 20.8349 29.1155 20.7772C29.2548 20.7196 29.3813 20.6351 29.4879 20.5286C29.5944 20.4221 29.6789 20.2957 29.7365 20.1566C29.7942 20.0174 29.8238 19.8683 29.8237 19.7178ZM20.5601 29.3324C20.6177 29.1934 20.6474 29.0443 20.6474 28.8938V26.5996C20.6474 26.4491 20.6177 26.3001 20.5601 26.161C20.5024 26.0219 20.4179 25.8956 20.3114 25.7891C20.2048 25.6827 20.0783 25.5983 19.9391 25.5407C19.7999 25.4831 19.6507 25.4534 19.5 25.4534C19.3493 25.4534 19.2001 25.4831 19.0609 25.5407C18.9217 25.5983 18.7952 25.6827 18.6887 25.7891C18.5822 25.8956 18.4976 26.0219 18.44 26.161C18.3823 26.3001 18.3526 26.4491 18.3526 26.5996V28.8938C18.3526 29.0443 18.3823 29.1934 18.44 29.3324C18.4976 29.4715 18.5822 29.5979 18.6887 29.7043C18.7952 29.8107 18.9217 29.8952 19.0609 29.9528C19.2001 30.0104 19.3493 30.04 19.5 30.04C19.6507 30.04 19.7999 30.0104 19.9391 29.9528C20.0783 29.8952 20.2048 29.8107 20.3114 29.7043C20.4179 29.5979 20.5024 29.4715 20.5601 29.3324ZM9.88437 20.7772C10.0237 20.8349 10.173 20.8646 10.3237 20.8646H12.6174C12.9219 20.8646 13.214 20.7437 13.4293 20.5286C13.6446 20.3135 13.7656 20.0217 13.7656 19.7175C13.7656 19.4133 13.6446 19.1215 13.4293 18.9064C13.214 18.6913 12.9219 18.5704 12.6174 18.5704H10.3237C10.173 18.5704 10.0238 18.6001 9.88451 18.6577C9.74526 18.7153 9.61875 18.7998 9.5122 18.9063C9.40564 19.0128 9.32114 19.1392 9.26351 19.2784C9.20588 19.4175 9.17626 19.5666 9.17633 19.7172C9.17618 19.8678 9.20575 20.017 9.26335 20.1562C9.32094 20.2954 9.40544 20.4219 9.512 20.5284C9.61856 20.635 9.74509 20.7195 9.88437 20.7772ZM25.5497 12.1688C25.4105 12.2265 25.2841 12.311 25.1776 12.4175L23.5555 14.0397C23.3403 14.2549 23.2195 14.5466 23.2195 14.8508C23.2195 15.155 23.3403 15.4467 23.5555 15.6619C23.6619 15.7684 23.7884 15.8529 23.9275 15.9106C24.0667 15.9682 24.2159 15.9979 24.3666 15.9979C24.5172 15.9979 24.6664 15.9682 24.8056 15.9106C24.9447 15.8529 25.0712 15.7684 25.1776 15.6619L26.7998 14.0397C27.248 13.5919 27.248 12.8658 26.7998 12.4175C26.6933 12.311 26.5669 12.2265 26.4277 12.1688C26.2886 12.1112 26.1394 12.0815 25.9887 12.0815C25.8381 12.0815 25.6889 12.1112 25.5497 12.1688ZM26.4277 27.2656C26.5669 27.2079 26.6933 27.1234 26.7998 27.0169C27.248 26.5692 27.248 25.843 26.7998 25.3953V25.3947L25.1776 23.7725C25.0712 23.666 24.9447 23.5815 24.8056 23.5238C24.6664 23.4662 24.5172 23.4365 24.3666 23.4365C24.2159 23.4365 24.0667 23.4662 23.9275 23.5238C23.7884 23.5815 23.6619 23.666 23.5555 23.7725C23.3403 23.9877 23.2195 24.2794 23.2195 24.5836C23.2195 24.8877 23.3403 25.1795 23.5555 25.3947L25.1776 27.0169C25.2841 27.1234 25.4105 27.2079 25.5497 27.2656C25.6889 27.3232 25.8381 27.3529 25.9887 27.3529C26.1394 27.3529 26.2886 27.3232 26.4277 27.2656ZM13.4504 27.2656C13.5895 27.2079 13.716 27.1234 13.8224 27.0169L15.4446 25.3953C15.8928 24.9475 15.8928 24.2208 15.4446 23.773C15.3381 23.6665 15.2117 23.582 15.0725 23.5244C14.9334 23.4668 14.7842 23.4371 14.6335 23.4371C14.4828 23.4371 14.3337 23.4668 14.1945 23.5244C14.0553 23.582 13.9289 23.6665 13.8224 23.773L12.2002 25.3953C11.9853 25.6105 11.8646 25.9021 11.8646 26.2061C11.8646 26.5101 11.9853 26.8017 12.2002 27.0169C12.3067 27.1234 12.4331 27.2079 12.5723 27.2656C12.7115 27.3232 12.8607 27.3529 13.0113 27.3529C13.162 27.3529 13.3112 27.3232 13.4504 27.2656ZM11.8654 13.228C11.8654 13.5322 11.9862 13.8239 12.2014 14.0391L13.8236 15.6608C13.93 15.7673 14.0564 15.8518 14.1956 15.9094C14.3348 15.9671 14.484 15.9967 14.6346 15.9967C14.7853 15.9967 14.9345 15.9671 15.0737 15.9094C15.2128 15.8518 15.3393 15.7673 15.4457 15.6608C15.8934 15.2136 15.8934 14.4869 15.4457 14.0391L13.8236 12.4169C13.7171 12.3104 13.5907 12.2259 13.4515 12.1683C13.3123 12.1106 13.1631 12.081 13.0125 12.081C12.8618 12.081 12.7126 12.1106 12.5734 12.1683C12.4343 12.2259 12.3078 12.3104 12.2014 12.4169C11.9862 12.6321 11.8654 12.9239 11.8654 13.228Z" fill="white"/>
</svg>
