<svg width="88" height="27" viewBox="0 0 88 27" fill="none" xmlns="http://www.w3.org/2000/svg">
<path fill-rule="evenodd" clip-rule="evenodd" d="M37.8551 19.1533V26.0664H44.3835V9.55398C44.3835 4.12225 40.9097 0.803955 33.962 0.803955C27.0741 0.803955 23.5404 4.14201 23.5404 9.55398V26.0664H30.0888V19.1533H37.8551ZM37.8551 13.6229H30.0888V10.1663C30.0888 7.63806 31.2468 6.31469 33.962 6.31469C36.7371 6.31469 37.8551 7.63806 37.8551 10.1663V13.6229ZM51.9904 1.1171H45.2024L49.2152 19.9998C50.0537 23.9896 52.3697 26.3796 55.9034 26.3796H57.8799C61.813 26.3796 63.6298 24.1279 64.5282 19.9998L68.5012 1.1171H61.793L58.3591 18.7949C58.1993 19.8813 57.6603 20.4541 56.8218 20.4541C55.8835 20.4541 55.5241 19.9011 55.2845 18.7949L51.9904 1.1171ZM87.4076 1.1171V6.54884H76.2873V10.993H85.0917V15.9112H76.2873V20.6318H87.4076V26.0636H69.8986V1.1171H87.4076ZM21.0249 8.70178C21.0249 4.13912 17.4712 1.1171 10.6432 1.1171H0.441284V26.0833H6.96973V6.66735H10.6632C13.2187 6.66735 14.4964 7.61544 14.4964 9.5511V11.151C14.4964 13.0669 13.2187 14.0348 10.6632 14.0348H9.54522V19.743H11.7413C17.8904 19.743 21.0249 16.721 21.0249 12.1979V8.70178Z" fill="white"/>
</svg>
