<svg width="79" height="24" viewBox="0 0 79 24" fill="none" xmlns="http://www.w3.org/2000/svg">
<path fill-rule="evenodd" clip-rule="evenodd" d="M33.9811 17.0622V23.3304H39.9006V8.35827C39.9006 3.43321 36.7508 0.424438 30.4512 0.424438C24.2058 0.424438 21.0017 3.45112 21.0017 8.35827V23.3304H26.9393V17.0622H33.9811ZM33.9811 12.0476H26.9393V8.91346C26.9393 6.62106 27.9892 5.42114 30.4512 5.42114C32.9674 5.42114 33.9811 6.62106 33.9811 8.91346V12.0476ZM46.7979 0.708397H40.6431L44.2816 17.8297C45.0419 21.4474 47.1418 23.6144 50.3459 23.6144H52.138C55.7042 23.6144 57.3515 21.5727 58.1662 17.8297L61.7686 0.708397H55.6861L52.5725 16.7372C52.4277 17.7222 51.9389 18.2417 51.1787 18.2417C50.3278 18.2417 50.002 17.7402 49.7848 16.7372L46.7979 0.708397ZM78.9114 0.708397V5.63347H68.8284V9.66305H76.8115V14.1225H68.8284V18.4028H78.9114V23.3279H63.0356V0.708397H78.9114ZM18.7208 7.58558C18.7208 3.44852 15.4986 0.708397 9.30758 0.708397H0.057251V23.3458H5.97673V5.74092H9.32569C11.6428 5.74092 12.8013 6.60057 12.8013 8.35568V9.8063C12.8013 11.5435 11.6428 12.4211 9.32569 12.4211H8.31197V17.5969H10.3032C15.8788 17.5969 18.7208 14.8568 18.7208 10.7555V7.58558Z" fill="#ABABAB"/>
</svg>
