<svg width="41" height="41" viewBox="0 0 41 41" fill="none" xmlns="http://www.w3.org/2000/svg">
<path fill-rule="evenodd" clip-rule="evenodd" d="M0.5 20.2178C0.5 31.2464 9.47141 40.2178 20.5 40.2178C31.5286 40.2178 40.5 31.2464 40.5 20.2178C40.5 9.18918 31.5286 0.217773 20.5 0.217773C9.47141 0.217773 0.5 9.18918 0.5 20.2178ZM3.49081 20.2178C3.49081 10.8382 11.1204 3.20858 20.5 3.20858C29.8796 3.20858 37.5092 10.8382 37.5092 20.2178C37.5092 29.5974 29.8796 37.227 20.5 37.227C11.1204 37.227 3.49081 29.5974 3.49081 20.2178ZM22.1946 29.7671C23.566 29.7657 24.9263 29.5222 26.213 29.0477L25.4673 25.8396C24.7532 26.0923 24.0019 26.2238 23.2444 26.2286C21.5358 26.2286 20.9356 25.3597 20.9356 23.5005V18.4333H25.6128V15.0758H20.9367V10.6684H17.2194L16.799 15.0758H14.0406V18.1332L16.7687 18.404V23.5905C16.7687 27.8776 18.8067 29.7671 22.1946 29.7671Z" fill="white"/>
</svg>
