<svg width="107" height="16" viewBox="0 0 107 16" fill="none" xmlns="http://www.w3.org/2000/svg">
<path d="M15.08 0.999999V9.24L4.32 0.999999H1.49012e-08V15H4.32V6.7L15.08 15H19.4V0.999999H15.08ZM34.8463 0.76H29.4862C25.0062 0.76 21.8062 3.68 21.8062 8C21.8062 12.34 25.1062 15.24 29.4862 15.24H34.8463C39.3262 15.24 42.5263 12.34 42.5263 8C42.5263 3.68 39.3262 0.76 34.8463 0.76ZM34.8463 11.14H29.4862C27.5862 11.14 26.2862 9.8 26.2862 8C26.2862 6.22 27.5862 4.86 29.4862 4.86H34.8463C36.7462 4.86 38.0463 6.22 38.0463 8C38.0463 9.8 36.7462 11.14 34.8463 11.14ZM58.4803 6.16H50.5603C49.6603 6.16 49.3203 5.84 49.3203 5.42C49.3203 5 49.7003 4.54 51.3603 4.54H56.7403C58.1803 4.54 58.7203 5.04 58.8003 5.62H63.2203C63.2203 4.26 62.5203 0.76 56.8603 0.76H51.3603C46.4203 0.779999 44.8403 3.2 44.8403 5.64C44.8403 8.12 46.6003 9.72 50.0803 9.72H57.6603C58.6803 9.72 59.0203 10.06 59.0203 10.46C59.0203 11 58.3603 11.32 56.7803 11.32H51.4203C50.0003 11.32 49.1603 10.94 49.0403 10.24H44.6203C44.6203 12.12 45.5403 15.24 51.1403 15.24H56.7803C61.4803 15.18 63.5203 13.26 63.5203 10.38C63.5203 7.9 61.8003 6.16 58.4803 6.16ZM81.4933 15H85.9533L82.2533 0.999999H68.9133L65.2133 15H69.6533L70.2333 12.78H80.9133L81.4933 15ZM71.2333 8.88L72.2733 4.86H78.8533L79.8933 8.88H71.2333ZM106.198 0.999999H88.9183V4.84H101.798V8.62C101.798 10.1 101.158 11.26 99.2983 11.26H93.9383C92.0983 11.26 91.4383 10.1 91.4383 8.62H87.0383C87.0383 13.16 89.6583 15.24 93.9383 15.24H99.2983C103.578 15.24 106.198 13.02 106.198 8.62V0.999999Z" fill="white"/>
</svg>
