<svg width="16" height="16" viewBox="0 0 16 16" fill="none" xmlns="http://www.w3.org/2000/svg">
<path d="M10.8162 4.81053C8.81963 0.000683601 8.22974 0 7.91115 0C7.61856 0 7.01492 0 4.84158 4.74382C0.304716 5.53148 0.12592 6.06351 0.038938 6.32184C-0.0596243 6.61451 -0.241375 7.1547 3.33324 10.0181C2.39777 14.4896 2.95732 14.7978 3.22983 14.9477C3.3327 15.0043 3.45189 15.0331 3.58441 15.0331C4.39759 15.0331 6.70223 13.5725 7.91211 12.7668C9.65655 13.9185 11.7248 15.2003 12.2926 15.2C12.469 15.2 12.5909 15.1329 12.661 15.0769C12.8925 14.8937 13.1795 14.6665 12.3603 10.1884C16.1972 6.90804 16.0926 6.64916 15.949 6.29404C15.8379 6.01874 15.733 5.75828 10.816 4.81037L10.8162 4.81053Z" fill="#E4AA15"/>
</svg>
